<svg width="24" height="24" viewBox="0 0 24 24" fill="none" xmlns="http://www.w3.org/2000/svg" aria-hidden="true"><path d="M10.9 11.6028C9.02451 10.7544 8.20861 8.53328 9.08892 6.67251L9.27902 6.27069L11.1882 2.72774C11.5202 2.05495 12.4796 2.05495 12.8117 2.72774L15.2727 7.7143C15.4045 7.98147 15.6594 8.16664 15.9542 8.20948L21.4572 9.00912C22.1997 9.117 22.4962 10.0294 21.9589 10.5531L17.9769 14.4346C17.7636 14.6426 17.7166 15.2358 17.7166 15.2358L18.1866 17.9762L18.6566 20.7166C18.7834 21.4561 18.0073 22.02 17.3432 21.6708L12.4212 19.0832C12.1574 18.9445 11.8424 18.9445 11.5787 19.0832L6.65667 21.6708C5.99259 22.02 5.21644 21.4561 5.34327 20.7166L6.28329 15.2358C6.33366 14.9422 6.2363 14.6426 6.02296 14.4346L2.04095 10.5531C1.5037 10.0294 1.80016 9.117 2.54263 9.00912L4.90345 8.6093L6.08386 8.40939" stroke="black" stroke-width="1.5"></path></svg>