<svg width="220" height="25" viewBox="0 0 220 25" fill="none" xmlns="http://www.w3.org/2000/svg">
<g clip-path="url(#clip0_2862_7156)">
<path d="M16.5462 3.09365V3.00457L24.0099 0.255127L16.7026 23.1356V23.3838L16.6584 23.2742L16.5462 23.6253V22.9964L12.2277 12.3015L1.65528 8.7737H1.17773L1.40431 8.68996L1.17773 8.61435H1.60888L16.5462 3.09365Z" fill="#777A7E"/>
<path d="M36.6907 18.0626C36.6015 18.1507 36.4586 18.2565 36.2622 18.3799C36.0658 18.5033 35.798 18.6442 35.4766 18.7676C35.1552 18.8909 34.7623 19.0143 34.2802 19.1024C33.816 19.1906 33.2804 19.2435 32.6732 19.2435C31.5127 19.2435 30.4949 19.0496 29.6378 18.6971C28.7807 18.327 28.0844 17.8159 27.5308 17.1461C26.9773 16.4764 26.5666 15.7009 26.3167 14.8021C26.0488 13.9032 25.9238 12.8986 25.9238 11.8235C25.9238 10.7484 26.0666 9.74377 26.3524 8.82733C26.6381 7.91085 27.0487 7.11774 27.6201 6.44801C28.1736 5.77828 28.8879 5.24954 29.7271 4.87942C30.5662 4.50931 31.5662 4.31543 32.7089 4.31543C33.2625 4.31543 33.7802 4.3683 34.2267 4.45643C34.6731 4.56218 35.0837 4.66793 35.423 4.80892C35.7622 4.94992 36.0479 5.09092 36.2622 5.23191C36.4944 5.37292 36.6551 5.5139 36.7622 5.60203C36.8871 5.70778 37.0121 5.84878 37.1014 6.0074C37.1907 6.16602 37.2443 6.34226 37.2443 6.51851C37.2443 6.8005 37.1372 7.0825 36.9229 7.36448C36.7086 7.64648 36.4765 7.91085 36.2086 8.15759C36.03 7.98135 35.8337 7.8051 35.6194 7.62885C35.4051 7.45261 35.1552 7.29399 34.8874 7.153C34.6195 7.01199 34.3159 6.90626 33.9767 6.81813C33.6374 6.73001 33.2625 6.67713 32.8339 6.67713C32.1019 6.67713 31.4769 6.81813 30.977 7.11774C30.477 7.41737 30.0841 7.78748 29.7806 8.26335C29.4771 8.73921 29.2629 9.2679 29.1378 9.86717C29.0128 10.4664 28.9414 11.0833 28.9414 11.7178C28.9414 12.3875 29.0128 13.0219 29.1378 13.6389C29.2629 14.2557 29.4949 14.7844 29.8163 15.2603C30.1377 15.7362 30.5484 16.1063 31.0662 16.3883C31.584 16.6702 32.209 16.8113 32.9767 16.8113C33.3875 16.8113 33.7446 16.7584 34.0839 16.6702C34.423 16.5645 34.7267 16.4412 34.9766 16.3001C35.2444 16.1592 35.4587 16.0005 35.6551 15.8596C35.8516 15.7009 36.0123 15.5599 36.1372 15.4541C36.2265 15.5599 36.3158 15.6833 36.4408 15.8243C36.5657 15.9653 36.6728 16.1239 36.7622 16.2649C36.8693 16.4235 36.9407 16.5821 37.03 16.7408C37.1014 16.8994 37.1372 17.0404 37.1372 17.1638C37.1372 17.3576 37.1014 17.4987 37.03 17.6396C36.9586 17.763 36.8335 17.904 36.6907 18.0626ZM47.8326 16.4235C47.8326 17.5515 47.9933 18.3799 48.3326 18.8909C48.0648 18.9967 47.8326 19.0672 47.6005 19.1024C47.3684 19.1377 47.1362 19.173 46.8863 19.173C46.3684 19.173 45.9757 19.0672 45.7078 18.8734C45.44 18.6794 45.2614 18.3799 45.1899 18.0097C44.8685 18.3446 44.4579 18.6266 43.9222 18.8557C43.4045 19.0849 42.7617 19.1906 42.0117 19.1906C41.6189 19.1906 41.226 19.1377 40.8333 19.032C40.4404 18.9262 40.0833 18.75 39.7619 18.5033C39.4405 18.2565 39.1905 17.9392 38.9762 17.5339C38.7798 17.1285 38.6727 16.635 38.6727 16.0534C38.6727 15.3308 38.8513 14.7316 39.2084 14.2734C39.5654 13.8151 40.0119 13.4626 40.5475 13.1982C41.0832 12.9339 41.6724 12.7576 42.2796 12.6518C42.9045 12.5461 43.4758 12.4932 43.9937 12.458C44.1722 12.4403 44.3329 12.4403 44.5115 12.4403H44.9757V12.0527C44.9757 11.5063 44.8329 11.1185 44.5294 10.8718C44.2257 10.6426 43.7436 10.5193 43.0831 10.5193C42.458 10.5193 41.9046 10.6251 41.4225 10.8189C40.9404 11.0127 40.4583 11.2419 39.994 11.5063C39.7976 11.2595 39.619 10.9952 39.5119 10.6955C39.387 10.3959 39.3334 10.1844 39.3334 10.0434C39.3334 9.84952 39.4405 9.65568 39.6726 9.46184C39.9047 9.2679 40.2082 9.10932 40.6011 8.9507C40.994 8.79208 41.4403 8.68634 41.9582 8.58059C42.458 8.49247 42.9937 8.43959 43.5652 8.43959C44.3508 8.43959 45.0115 8.51009 45.5471 8.66871C46.0828 8.82733 46.5291 9.07407 46.8684 9.39131C47.2077 9.7262 47.4576 10.1315 47.6005 10.6251C47.7434 11.1185 47.8147 11.7001 47.8147 12.3522L47.8326 16.4235ZM45.0471 13.9385H44.7436C44.6365 13.9385 44.5471 13.9385 44.44 13.9561C44.0829 13.9913 43.7259 14.0265 43.3687 14.0794C43.0116 14.1323 42.6902 14.238 42.4224 14.3791C42.1545 14.5201 41.9224 14.7139 41.7439 14.9431C41.5653 15.1722 41.4761 15.4718 41.4761 15.8243C41.4761 16.2297 41.5832 16.5645 41.8152 16.8465C42.0474 17.1285 42.4403 17.2695 42.9937 17.2695C43.2616 17.2695 43.5294 17.2343 43.7794 17.1638C44.0294 17.0932 44.2436 17.0051 44.44 16.8817C44.6365 16.7584 44.7793 16.635 44.8864 16.5116C44.9936 16.3706 45.0471 16.2472 45.0471 16.1415V13.9385ZM53.2428 9.70855C53.475 9.44418 53.8321 9.1622 54.3321 8.88021C54.832 8.59821 55.4391 8.45721 56.189 8.45721C56.7247 8.45721 57.2425 8.54533 57.7246 8.72158C58.2067 8.89783 58.6352 9.19747 59.0102 9.58515C59.3851 9.99057 59.6887 10.5193 59.903 11.1714C60.1351 11.8235 60.2422 12.6343 60.2422 13.6036C60.2422 14.7139 60.1173 15.6481 59.8494 16.3706C59.5816 17.0932 59.2602 17.6748 58.8495 18.0803C58.4388 18.5033 57.9746 18.8028 57.4746 18.9791C56.9746 19.1553 56.4568 19.2435 55.9569 19.2435C55.5462 19.2435 55.1712 19.1906 54.8677 19.1024C54.5641 19.0143 54.2963 18.9086 54.082 18.7852C53.8678 18.6794 53.7071 18.5561 53.5821 18.4504C53.475 18.3446 53.3857 18.2565 53.3679 18.2212V23.5086H50.4038V8.77446C50.4753 8.75683 50.5645 8.73921 50.6716 8.73921C50.7609 8.72158 50.868 8.72158 50.9752 8.70396C51.1002 8.70396 51.2252 8.68633 51.3859 8.68633C51.868 8.68633 52.2786 8.75683 52.6179 8.91545C52.9393 9.07407 53.1536 9.33843 53.2428 9.70855ZM57.1711 13.6741C57.1711 13.2511 57.1353 12.8458 57.064 12.4756C56.9925 12.1055 56.8675 11.7883 56.7068 11.5063C56.5461 11.2419 56.314 11.0304 56.0283 10.8718C55.7426 10.7132 55.4034 10.6426 54.9927 10.6426C54.3856 10.6426 53.9571 10.766 53.7249 10.9775C53.4928 11.2067 53.3679 11.4534 53.3679 11.7354V16.3001C53.475 16.4235 53.6893 16.5469 53.9928 16.7055C54.2963 16.8642 54.6356 16.9346 55.0284 16.9346C55.7605 16.9346 56.2961 16.6527 56.6532 16.0711C56.9925 15.507 57.1711 14.7139 57.1711 13.6741ZM62.5278 17.3753C62.4206 17.0932 62.3671 16.7936 62.3313 16.4764C62.2956 16.1592 62.2956 15.8419 62.2956 15.5247V5.56678C62.4027 5.54916 62.5099 5.53153 62.617 5.53153C62.7241 5.51391 62.8313 5.51391 62.9384 5.49628C63.0455 5.49628 63.1706 5.47866 63.2777 5.47866C63.5098 5.47866 63.7419 5.49628 63.9741 5.54915C64.2061 5.5844 64.4204 5.67253 64.599 5.81352C64.7954 5.9369 64.9383 6.11314 65.0632 6.34226C65.1703 6.57139 65.2418 6.85337 65.2418 7.20587V8.73921H68.2951V10.907H65.2597V15.4894C65.2597 16.4941 65.6703 16.9875 66.4917 16.9875C66.6881 16.9875 66.8845 16.9523 67.063 16.8994C67.2416 16.8289 67.4023 16.7584 67.5452 16.6879C67.688 16.6174 67.813 16.5293 67.9201 16.4412C68.0272 16.353 68.0987 16.2826 68.1523 16.2472C68.3665 16.5645 68.545 16.8289 68.6522 17.058C68.7593 17.2872 68.8307 17.4987 68.8307 17.7101C68.8307 17.904 68.7593 18.0803 68.5986 18.2565C68.4379 18.4327 68.2236 18.609 67.9558 18.75C67.688 18.9086 67.3488 19.032 66.9559 19.1201C66.5631 19.2082 66.1345 19.2611 65.6703 19.2611C64.7776 19.2611 64.0633 19.0849 63.5633 18.75C63.0991 18.3799 62.742 17.9392 62.5278 17.3753ZM75.7944 17.0932C76.1515 17.0932 76.4729 17.058 76.7586 16.9699C77.0265 16.8994 77.2764 16.7936 77.5086 16.6879C77.7228 16.5821 77.9192 16.4412 78.0799 16.3178C78.2406 16.1768 78.3835 16.0534 78.5084 15.9477C78.687 16.1592 78.8656 16.4412 79.062 16.776C79.2584 17.1109 79.3477 17.3929 79.3477 17.6044C79.3477 17.9216 79.1691 18.2036 78.812 18.4679C78.5084 18.6971 78.0799 18.8909 77.5086 19.0672C76.955 19.2258 76.2944 19.3139 75.5445 19.3139C74.8659 19.3139 74.1874 19.2258 73.5267 19.0496C72.8661 18.8734 72.2769 18.5737 71.759 18.1507C71.2412 17.7277 70.8306 17.1461 70.5092 16.4235C70.1878 15.7009 70.0271 14.7844 70.0271 13.6917C70.0271 12.7929 70.1699 12.0173 70.4556 11.3653C70.7413 10.7132 71.1162 10.1668 71.5805 9.74377C72.0448 9.32078 72.5804 9.00358 73.1875 8.79209C73.7768 8.59821 74.3838 8.49247 75.0088 8.49247C75.8123 8.49247 76.5087 8.61584 77.08 8.86258C77.6514 9.10932 78.0978 9.44418 78.4549 9.86717C78.812 10.2902 79.062 10.766 79.2227 11.3124C79.3834 11.8587 79.4548 12.4228 79.4548 13.0219V13.3216C79.4548 13.4449 79.4548 13.5507 79.437 13.6917C79.437 13.8151 79.4191 13.9385 79.4191 14.0619C79.4191 14.1852 79.4013 14.2734 79.3834 14.3438H72.9733C73.0268 15.1369 73.2768 15.789 73.7232 16.3178C74.1517 16.8289 74.8481 17.0932 75.7944 17.0932ZM76.7943 12.74C76.7943 12.0527 76.6515 11.4886 76.3837 11.0656C76.1158 10.6426 75.6337 10.4136 74.9374 10.4136C74.3302 10.4136 73.866 10.6251 73.5089 11.0304C73.1518 11.4357 72.9733 11.9998 72.9733 12.74H76.7943ZM84.615 9.76142C84.7044 9.63802 84.8115 9.49705 84.9543 9.33843C85.0971 9.17981 85.2757 9.03883 85.49 8.91545C85.7043 8.79209 85.9364 8.68633 86.1864 8.59821C86.4363 8.51009 86.7041 8.47484 87.0077 8.47484C87.1862 8.47484 87.3648 8.49246 87.5612 8.51009C87.7577 8.54533 87.9362 8.59822 88.0969 8.66871C88.2576 8.73921 88.4005 8.84496 88.5076 8.98595C88.6147 9.12695 88.6683 9.28556 88.6683 9.4794C88.6683 9.79664 88.5969 10.1492 88.4362 10.5545C88.2755 10.9599 88.1148 11.3124 87.9541 11.5944C87.7041 11.4005 87.4541 11.2419 87.222 11.1361C86.972 11.0304 86.6863 10.9775 86.3471 10.9775C85.9006 10.9775 85.5257 11.1009 85.2222 11.3653C84.9186 11.6297 84.7579 11.9292 84.7579 12.2994V19.2435H81.7939V8.75684C81.8653 8.73921 81.9546 8.72158 82.0617 8.72158C82.151 8.70396 82.2581 8.70396 82.3652 8.68633C82.4724 8.68633 82.6153 8.66871 82.776 8.66871C83.2402 8.66871 83.6508 8.75684 83.9901 8.93308C84.3115 9.12696 84.5258 9.39131 84.615 9.76142ZM93.025 9.76142C93.1143 9.63802 93.2215 9.49705 93.3643 9.33843C93.5071 9.17981 93.6854 9.03883 93.8997 8.91545C94.1139 8.79209 94.3459 8.68633 94.5965 8.59821C94.8462 8.51009 95.1145 8.47484 95.4172 8.47484C95.5961 8.47484 95.775 8.49246 95.9715 8.51009C96.1672 8.54533 96.3461 8.59822 96.5072 8.66871C96.6674 8.73921 96.81 8.84496 96.9171 8.98595C97.0242 9.12695 97.0783 9.28556 97.0783 9.4794C97.0783 9.79664 97.0065 10.1492 96.8463 10.5545C96.6852 10.9599 96.5249 11.3124 96.3638 11.5944C96.1141 11.4005 95.8644 11.2419 95.6315 11.1361C95.3819 11.0304 95.0958 10.9775 94.7567 10.9775C94.3105 10.9775 93.936 11.1009 93.6321 11.3653C93.3286 11.6297 93.1679 11.9292 93.1679 12.2994V19.2435H90.2039V8.75684C90.2753 8.73921 90.3646 8.72158 90.4717 8.72158C90.5609 8.70396 90.6681 8.70396 90.7752 8.68633C90.8823 8.68633 91.0252 8.66871 91.1859 8.66871C91.6502 8.66871 92.0608 8.75684 92.4001 8.93308C92.7215 9.12696 92.9358 9.39131 93.025 9.76142ZM107.149 16.4235C107.149 17.5515 107.309 18.3799 107.649 18.8909C107.381 18.9967 107.149 19.0672 106.917 19.1024C106.685 19.1377 106.452 19.173 106.202 19.173C105.684 19.173 105.292 19.0672 105.024 18.8734C104.756 18.6794 104.578 18.3799 104.506 18.0097C104.184 18.3446 103.774 18.6266 103.238 18.8557C102.721 19.0849 102.078 19.1906 101.328 19.1906C100.935 19.1906 100.542 19.1377 100.15 19.032C99.7566 18.9262 99.3998 18.75 99.0784 18.5033C98.757 18.2565 98.5064 17.9392 98.2922 17.5339C98.0956 17.1285 97.9884 16.635 97.9884 16.0534C97.9884 15.3308 98.1673 14.7316 98.5241 14.2734C98.8818 13.8151 99.3281 13.4626 99.8637 13.1982C100.399 12.9339 100.988 12.7576 101.596 12.6518C102.221 12.5461 102.792 12.4932 103.31 12.458C103.489 12.4403 103.649 12.4403 103.828 12.4403H104.292V12.0527C104.292 11.5063 104.149 11.1185 103.845 10.8718C103.542 10.6426 103.06 10.5193 102.4 10.5193C101.774 10.5193 101.221 10.6251 100.739 10.8189C100.257 11.0127 99.7743 11.2419 99.3104 11.5063C99.1138 11.2595 98.935 10.9952 98.8278 10.6955C98.703 10.3959 98.6499 10.1844 98.6499 10.0434C98.6499 9.84952 98.757 9.65568 98.989 9.46184C99.2209 9.2679 99.5247 9.10932 99.9168 8.9507C100.31 8.79208 100.756 8.68634 101.274 8.58059C101.774 8.49247 102.31 8.43959 102.881 8.43959C103.667 8.43959 104.328 8.51009 104.864 8.66871C105.399 8.82733 105.846 9.07407 106.185 9.39131C106.524 9.7262 106.773 10.1315 106.917 10.6251C107.059 11.1185 107.131 11.7001 107.131 12.3522L107.149 16.4235ZM104.363 13.9385H104.06C103.953 13.9385 103.863 13.9385 103.756 13.9561C103.399 13.9913 103.042 14.0265 102.685 14.0794C102.328 14.1323 102.006 14.238 101.738 14.3791C101.471 14.5201 101.239 14.7139 101.06 14.9431C100.881 15.1722 100.793 15.4718 100.793 15.8243C100.793 16.2297 100.9 16.5645 101.132 16.8465C101.364 17.1285 101.757 17.2695 102.31 17.2695C102.577 17.2695 102.846 17.2343 103.095 17.1638C103.345 17.0932 103.559 17.0051 103.756 16.8817C103.953 16.7584 104.095 16.635 104.202 16.5116C104.309 16.3706 104.363 16.2472 104.363 16.1415V13.9385Z" fill="#777A7E"/>
</g>
<path d="M127.581 2.7356L130.704 8.89829L137.169 10.1588L132.634 15.2281L133.507 22.1698L127.581 19.1401L121.656 22.1698L122.529 15.2281L117.993 10.1588L124.459 8.89829L127.581 2.7356Z" fill="#777A7E"/>
<path d="M168.501 2.7356L171.808 8.89829L178.653 10.1588L173.851 15.2281L174.775 22.1698L168.501 19.1401L162.227 22.1698L163.151 15.2281L158.349 10.1588L165.195 8.89829L168.501 2.7356Z" fill="#777A7E"/>
<path d="M147.749 2.7356L150.872 8.89829L157.337 10.1588L152.802 15.2281L153.675 22.1698L147.749 19.1401L141.823 22.1698L142.696 15.2281L138.161 10.1588L144.626 8.89829L147.749 2.7356Z" fill="#777A7E"/>
<path d="M189.255 2.7356L192.378 8.89829L198.843 10.1588L194.308 15.2281L195.181 22.1698L189.255 19.1401L183.33 22.1698L184.202 15.2281L179.667 10.1588L186.132 8.89829L189.255 2.7356Z" fill="#777A7E"/>
<path d="M209.419 3.39579L212.275 9.03318L212.341 9.16328L212.484 9.19119L218.434 10.3512L214.249 15.0291L214.159 15.1304L214.176 15.2653L214.978 21.6473L209.555 18.8744L209.419 18.805L209.283 18.8744L203.86 21.6473L204.662 15.2653L204.679 15.1304L204.588 15.0291L200.403 10.3512L206.353 9.19119L206.496 9.16328L206.562 9.03318L209.419 3.39579Z" stroke="#777A7E" stroke-width="0.596833"/>
<path fill-rule="evenodd" clip-rule="evenodd" d="M210.01 3.91136V19.439L209.411 19.1323L203.485 22.162L204.358 15.2203L199.823 10.151L206.288 8.89048L209.411 2.72778L210.01 3.91136Z" fill="#777A7E"/>
<defs>
<clipPath id="clip0_2862_7156">
<rect width="108.065" height="23.9082" fill="white" transform="translate(0.5)"/>
</clipPath>
</defs>
</svg>
