<svg width="135" height="25" viewBox="0 0 135 25" fill="none" xmlns="http://www.w3.org/2000/svg">
<path d="M42.5814 3.06274L45.7042 9.22544L52.1693 10.486L47.6342 15.5552L48.507 22.497L42.5814 19.4673L36.6557 22.497L37.5285 15.5552L32.9934 10.486L39.4585 9.22544L42.5814 3.06274Z" fill="#777A7E"/>
<path d="M83.501 3.06274L86.8076 9.22544L93.653 10.486L88.8511 15.5552L89.7753 22.497L83.501 19.4673L77.2268 22.497L78.151 15.5552L73.3491 10.486L80.1945 9.22544L83.501 3.06274Z" fill="#777A7E"/>
<path d="M62.7488 3.06274L65.8717 9.22544L72.3368 10.486L67.8017 15.5552L68.6745 22.497L62.7488 19.4673L56.8232 22.497L57.696 15.5552L53.1609 10.486L59.626 9.22544L62.7488 3.06274Z" fill="#777A7E"/>
<path d="M104.255 3.06274L107.378 9.22544L113.843 10.486L109.308 15.5552L110.181 22.497L104.255 19.4673L98.3295 22.497L99.2023 15.5552L94.6672 10.486L101.132 9.22544L104.255 3.06274Z" fill="#777A7E"/>
<path d="M124.419 3.72294L127.275 9.36032L127.341 9.49043L127.484 9.51834L133.434 10.6784L129.249 15.3563L129.159 15.4576L129.176 15.5925L129.978 21.9745L124.555 19.2016L124.419 19.1321L124.283 19.2016L118.86 21.9745L119.662 15.5925L119.679 15.4576L119.588 15.3563L115.403 10.6784L121.353 9.51834L121.496 9.49043L121.562 9.36032L124.419 3.72294Z" stroke="#777A7E" stroke-width="0.596833"/>
<path fill-rule="evenodd" clip-rule="evenodd" d="M125.01 4.23851V19.7661L124.411 19.4595L118.485 22.4892L119.358 15.5474L114.823 10.4782L121.288 9.21762L124.411 3.05493L125.01 4.23851Z" fill="#777A7E"/>
<path fill-rule="evenodd" clip-rule="evenodd" d="M24.5 11.9541C24.5 18.5561 19.1274 23.9082 12.5 23.9082C5.87258 23.9082 0.5 18.5561 0.5 11.9541C0.5 5.35202 5.87258 0 12.5 0C19.1274 0 24.5 5.35202 24.5 11.9541ZM17.0538 18.0383C16.5488 17.1657 16.0434 16.2924 15.5324 15.4088C15.5176 15.4202 15.5042 15.4311 15.4916 15.4414L15.4915 15.4414L15.4915 15.4414C15.4691 15.4598 15.4489 15.4762 15.4271 15.4903C15.1602 15.6935 14.9318 15.8417 14.6633 15.9759C13.9476 16.3342 13.1839 16.4466 12.3897 16.333C11.5512 16.2133 10.8276 15.8513 10.2197 15.2669C9.82343 14.8863 9.52774 14.4355 9.31878 13.9279C9.07161 13.3275 8.98219 12.6742 9.05891 12.0298C9.13239 11.3943 9.36106 10.7865 9.72484 10.2595C10.0886 9.73234 10.5765 9.30206 11.1457 9.00612C11.6646 8.73888 12.1486 8.58827 12.7986 8.5608C12.8575 8.55965 12.9616 8.5529 12.9616 8.5529C12.9616 8.5529 14.2786 5.8311 14.3381 5.7024C12.1392 5.18421 8.72394 5.89091 6.8989 9.08638C5.31212 11.8646 5.79924 15.724 8.76307 17.9858C11.3385 19.9498 14.8176 19.7437 17.0538 18.0383ZM15.1913 7.53648L15.3036 7.64641L15.3552 7.55866L15.3553 7.55852L15.3556 7.55796C15.3779 7.52015 15.3982 7.48567 15.4183 7.45106C15.6554 7.04266 16.1114 6.85056 16.5594 6.97093C16.7493 7.02146 16.8823 7.18328 16.8823 7.36536C16.8833 7.57751 16.764 7.72383 16.5951 7.82357C16.4605 7.90312 16.3226 7.97699 16.1846 8.05086L16.1846 8.05087L16.1846 8.05087L16.1846 8.05088L16.1846 8.0509C16.0419 8.12729 15.8993 8.20367 15.7604 8.28631C15.4058 8.49731 15.1105 8.77138 14.9205 9.14573C14.714 9.55377 14.6613 9.97661 14.6735 10.4259V10.5143H17.8545V9.59996L15.7937 9.60264C15.7937 9.60264 15.8003 9.45326 15.9368 9.29489C16.0918 9.13699 16.2274 9.06034 16.3861 8.9731C16.4797 8.92168 16.5732 8.87287 16.666 8.82446L16.6661 8.82439L16.6661 8.82438C16.8583 8.72407 17.0472 8.62547 17.2266 8.50905C17.6794 8.21572 17.9074 7.79534 17.8693 7.24649C17.8465 6.92115 17.7171 6.64862 17.4649 6.43381C17.123 6.14272 16.718 6.03465 16.2823 6.02613C15.9419 6.01766 15.6066 6.10994 15.3187 6.29129C15.0585 6.45405 14.839 6.65865 14.699 6.93856C14.6884 6.96014 14.6635 7.01275 14.6635 7.01275C14.6635 7.01275 14.6942 7.04663 14.7205 7.07142C14.7655 7.1137 14.8088 7.1577 14.8522 7.2017L14.8523 7.20179C14.8793 7.22926 14.9064 7.25673 14.9338 7.28377C15.0183 7.36715 15.1031 7.45013 15.1913 7.53648ZM19.349 14.2831L17.6123 11.2954H14.1756L12.4277 14.314H15.8897L17.598 17.2874L19.349 14.2831Z" fill="#777A7E"/>
</svg>
