<?xml version="1.0" encoding="UTF-8"?>
<svg width="173" height="75" viewBox="0 0 173 75" fill="none" xmlns="http://www.w3.org/2000/svg">
<g filter="url(#2VO6kaiKzRqJCjINrussBg-filter0_dd_14807_26427)">
<rect x="5" y="3" width="163" height="64" rx="8.16667" fill="white"/>
</g>
<text fill="#0061FF" xml:space="preserve" style="white-space: pre" font-family="Remote Sans" font-size="7" font-weight="500" letter-spacing="0em"><tspan x="124.317" y="20.9064">View all</tspan></text>
<path fill-rule="evenodd" clip-rule="evenodd" d="M152.624 17.2772C152.698 17.204 152.816 17.204 152.89 17.2772L154.39 18.7781C154.464 18.8514 154.464 18.9701 154.39 19.0434L152.89 20.5443C152.816 20.6175 152.698 20.6175 152.624 20.5443C152.551 20.471 152.551 20.3522 152.624 20.279L153.992 18.9108L152.624 17.5426C152.551 17.4693 152.551 17.3505 152.624 17.2772Z" fill="#0061FF"/>
<text fill="#4E6783" xml:space="preserve" style="white-space: pre" font-family="Remote Sans" font-size="5.97333" font-weight="300" letter-spacing="0em"><tspan x="63.3428" y="21.096"> (43)</tspan></text>
<text fill="#00234B" xml:space="preserve" style="white-space: pre" font-family="Remote Sans" font-size="10" font-weight="500" letter-spacing="0em"><tspan x="13.8896" y="21.096">Your team</tspan></text>
<rect x="14" y="30" width="28" height="29.2054" rx="5.10271" fill="#EFF7FF"/>
<rect x="19.1025" y="35.673" width="17.8595" height="17.8595" rx="3.82704" fill="white"/>
<path opacity="0.32" d="M25.3125 42.7595C25.3125 41.9229 25.9907 41.2446 26.8274 41.2446C27.664 41.2446 28.3422 41.9229 28.3422 42.7595C28.3422 43.5961 27.664 44.2744 26.8274 44.2744C25.9907 44.2744 25.3125 43.5961 25.3125 42.7595Z" fill="#0061FF"/>
<path fill-rule="evenodd" clip-rule="evenodd" d="M29.0595 41.2446C28.9274 41.2446 28.8203 41.3517 28.8203 41.4838C28.8203 41.6159 28.9274 41.723 29.0595 41.723C29.632 41.723 30.096 42.1871 30.096 42.7595C30.096 43.3319 29.632 43.796 29.0595 43.796C28.9274 43.796 28.8203 43.9031 28.8203 44.0352C28.8203 44.1673 28.9274 44.2744 29.0595 44.2744C29.8962 44.2744 30.5744 43.5961 30.5744 42.7595C30.5744 41.9229 29.8962 41.2446 29.0595 41.2446ZM29.6974 45.0717C29.5653 45.0717 29.4582 45.1788 29.4582 45.3109C29.4582 45.443 29.5653 45.55 29.6974 45.55H30.0801C30.7934 45.55 31.3717 46.1283 31.3717 46.8417C31.3717 47.2732 31.0219 47.623 30.5903 47.623H29.6974C29.5653 47.623 29.4582 47.7301 29.4582 47.8622C29.4582 47.9943 29.5653 48.1014 29.6974 48.1014H30.5903C31.2861 48.1014 31.8501 47.5374 31.8501 46.8417C31.8501 45.8641 31.0576 45.0717 30.0801 45.0717H29.6974ZM24.3555 46.8895C24.3555 45.8855 25.1693 45.0717 26.1733 45.0717H27.4809C28.4848 45.0717 29.2987 45.8855 29.2987 46.8895C29.2987 47.5588 28.7561 48.1014 28.0868 48.1014H25.5674C24.8981 48.1014 24.3555 47.5588 24.3555 46.8895Z" fill="#0061FF"/>
<rect x="46" y="30" width="108" height="28.0649" rx="3.82704" fill="#ECFDF2"/>
<rect x="51.1025" y="35.1027" width="17.8595" height="17.8595" rx="3.82704" fill="white"/>
<path opacity="0.32" d="M58.7149 47.5311H61.4895C62.204 47.5311 62.5612 47.5311 62.8341 47.3921C63.0741 47.2698 63.2693 47.0746 63.3916 46.8346C63.5306 46.5617 63.5306 46.2045 63.5306 45.49V43.7343C61.3467 44.6969 58.8577 44.6969 56.6738 43.7343V45.49C56.6738 46.2045 56.6738 46.5617 56.8129 46.8346C56.9352 47.0746 57.1303 47.2698 57.3704 47.3921C57.6432 47.5311 58.0005 47.5311 58.7149 47.5311Z" fill="#12B749"/>
<path fill-rule="evenodd" clip-rule="evenodd" d="M60.1022 41.1527C59.6121 41.1527 59.2014 41.4929 59.0935 41.95H61.111C61.003 41.4929 60.5923 41.1527 60.1022 41.1527ZM60.1022 40.6743C59.347 40.6743 58.7208 41.227 58.6061 41.95H58.458C57.9848 41.95 57.7482 41.95 57.5566 42.012C57.1672 42.1381 56.8619 42.4433 56.7358 42.8328C56.6738 43.0243 56.6738 43.261 56.6738 43.7342C57.2918 44.0066 57.9343 44.202 58.5873 44.3202V44.9C58.5873 45.0321 58.6944 45.1392 58.8265 45.1392C58.9586 45.1392 59.0657 45.0321 59.0657 44.9V44.3928C59.7541 44.4774 60.4504 44.4774 61.1387 44.3928V44.9C61.1387 45.0321 61.2458 45.1392 61.3779 45.1392C61.51 45.1392 61.6171 45.0321 61.6171 44.9V44.3202C62.2701 44.202 62.9126 44.0066 63.5306 43.7342C63.5306 43.261 63.5306 43.0243 63.4686 42.8328C63.3425 42.4433 63.0372 42.1381 62.6478 42.012C62.4563 41.95 62.2196 41.95 61.7464 41.95H61.5983C61.4836 41.227 60.8575 40.6743 60.1022 40.6743Z" fill="#12B749"/>
<text fill="#0F1419" xml:space="preserve" style="white-space: pre" font-family="Remote Sans" font-size="9" font-weight="500" letter-spacing="0em"><tspan x="85.5195" y="46.8087"> </tspan></text>
<text fill="#0F1419" xml:space="preserve" style="white-space: pre" font-family="Remote Sans" font-size="10" font-weight="500" letter-spacing="0em"><tspan x="74.0645" y="46.8087">43</tspan></text>
<text fill="#0F1419" xml:space="preserve" style="white-space: pre" font-family="Remote Sans" font-size="9" letter-spacing="0em"><tspan x="87.6465" y="46.8087">Employees</tspan></text>
<defs>
<filter id="2VO6kaiKzRqJCjINrussBg-filter0_dd_14807_26427" x="0.555556" y="0.333334" width="171.889" height="73.7778" filterUnits="userSpaceOnUse" color-interpolation-filters="sRGB">
<feFlood flood-opacity="0" result="BackgroundImageFix"/>
<feColorMatrix in="SourceAlpha" type="matrix" values="0 0 0 0 0 0 0 0 0 0 0 0 0 0 0 0 0 0 127 0" result="hardAlpha"/>
<feOffset dy="1.77778"/>
<feGaussianBlur stdDeviation="2.22222"/>
<feComposite in2="hardAlpha" operator="out"/>
<feColorMatrix type="matrix" values="0 0 0 0 0 0 0 0 0 0.137255 0 0 0 0 0.294118 0 0 0 0.04 0"/>
<feBlend mode="normal" in2="BackgroundImageFix" result="effect1_dropShadow_14807_26427"/>
<feColorMatrix in="SourceAlpha" type="matrix" values="0 0 0 0 0 0 0 0 0 0 0 0 0 0 0 0 0 0 127 0" result="hardAlpha"/>
<feOffset dy="3.55556"/>
<feGaussianBlur stdDeviation="1.77778"/>
<feComposite in2="hardAlpha" operator="out"/>
<feColorMatrix type="matrix" values="0 0 0 0 0 0 0 0 0 0 0 0 0 0 0 0 0 0 0.08 0"/>
<feBlend mode="normal" in2="effect1_dropShadow_14807_26427" result="effect2_dropShadow_14807_26427"/>
<feBlend mode="normal" in="SourceGraphic" in2="effect2_dropShadow_14807_26427" result="shape"/>
</filter>
</defs>
<style>@import url("https://remote-website.remote.com/fonts/remote-sans.css");</style></svg>
