<svg width="150" height="40" viewBox="0 0 150 40" fill="none" xmlns="http://www.w3.org/2000/svg">
<g clip-path="url(#clip0_3705_7415)">
<path d="M22.3324 13.8842C22.8534 13.8842 23.2752 13.4624 23.2752 12.9414C23.2752 12.4204 22.8534 11.9986 22.3324 11.9986C21.8113 11.9986 21.3896 12.4204 21.3896 12.9414C21.3896 13.4624 21.8113 13.8842 22.3324 13.8842ZM26.2524 18.5982C26.7734 18.5982 27.1952 18.1764 27.1952 17.6554C27.1952 17.1344 26.7734 16.7126 26.2524 16.7126C25.7314 16.7126 25.3096 17.1344 25.3096 17.6554C25.3096 18.1764 25.7314 18.5982 26.2524 18.5982ZM14.4674 14.3804C13.9464 14.3804 13.5246 14.8022 13.5246 15.3232C13.5246 15.8442 13.9464 16.266 14.4674 16.266C14.9885 16.266 15.4102 15.8442 15.4102 15.3232C15.4102 14.8022 14.9885 14.3804 14.4674 14.3804ZM22.3324 23.2874C22.8534 23.2874 23.2752 22.8656 23.2752 22.3446C23.2752 21.8236 22.8534 21.4018 22.3324 21.4018C21.8113 21.4018 21.3896 21.8236 21.3896 22.3446C21.3896 22.8656 21.8113 23.2874 22.3324 23.2874ZM19.3303 8.22743C19.3303 7.70641 18.9085 7.28463 18.3875 7.28463C17.8665 7.28463 17.4447 7.70641 17.4447 8.22743C17.4447 8.74845 17.8665 9.17023 18.3875 9.17023C18.9085 9.17023 19.3303 8.74845 19.3303 8.22743ZM36.4247 20.0124C36.4247 10.0634 28.3613 2 18.4123 2C8.46331 2 0.399902 10.0634 0.399902 20.0124C0.399902 29.7381 8.11596 37.6527 17.7672 38V25.3715H16.6011C16.3282 26.2895 15.4847 26.9345 14.4923 26.9345C13.2765 26.9345 12.2841 25.9421 12.2841 24.7264C12.2841 23.5107 13.2765 22.5183 14.4923 22.5183C15.4847 22.5183 16.3282 23.1881 16.6011 24.0813H17.7672V20.6575H12.6563C12.3834 21.5755 11.5398 22.2205 10.5474 22.2205C9.33167 22.2205 8.33926 21.2281 8.33926 20.0124C8.33926 18.7967 9.33167 17.8043 10.5474 17.8043C11.5398 17.8043 12.3834 18.4742 12.6563 19.3673H17.7672V15.9435H16.6011C16.3282 16.8615 15.4847 17.5065 14.4923 17.5065C13.2765 17.5065 12.2841 16.5141 12.2841 15.2984C12.2841 14.0827 13.2765 13.0903 14.4923 13.0903C15.4847 13.0903 16.3282 13.7602 16.6011 14.6533H17.7672V10.3363C16.8492 10.0634 16.2042 9.21985 16.2042 8.22743C16.2042 7.01171 17.1966 6.0193 18.4123 6.0193C19.628 6.0193 20.6204 7.01171 20.6204 8.22743C20.6204 9.21985 19.9506 10.0634 19.0574 10.3363V12.2963H20.2235C20.4964 11.3784 21.3399 10.7333 22.3324 10.7333C23.5481 10.7333 24.5405 11.7257 24.5405 12.9414C24.5405 14.1571 23.5481 15.1495 22.3324 15.1495C21.3399 15.1495 20.4964 14.4797 20.2235 13.5865H19.0574V17.0103H24.1683C24.4413 16.0923 25.2848 15.4473 26.2772 15.4473C27.4929 15.4473 28.4854 16.4397 28.4854 17.6554C28.4854 18.8711 27.4929 19.8635 26.2772 19.8635C25.2848 19.8635 24.4413 19.1937 24.1683 18.3005H19.0574V21.7243H20.2235C20.4964 20.8063 21.3399 20.1613 22.3324 20.1613C23.5481 20.1613 24.5405 21.1537 24.5405 22.3694C24.5405 23.5851 23.5481 24.5775 22.3324 24.5775C21.3399 24.5775 20.4964 23.9076 20.2235 23.0145H19.0574V38C28.6838 37.6527 36.4247 29.7381 36.4247 20.0124ZM10.5474 19.0696C10.0264 19.0696 9.60459 19.4914 9.60459 20.0124C9.60459 20.5334 10.0264 20.9552 10.5474 20.9552C11.0684 20.9552 11.4902 20.5334 11.4902 20.0124C11.4902 19.4914 11.0684 19.0696 10.5474 19.0696ZM14.4674 23.7836C13.9464 23.7836 13.5246 24.2054 13.5246 24.7264C13.5246 25.2474 13.9464 25.6692 14.4674 25.6692C14.9885 25.6692 15.4102 25.2474 15.4102 24.7264C15.4102 24.2054 14.9885 23.7836 14.4674 23.7836ZM53.792 20.2109C54.6108 20.9304 55.0078 21.9972 55.0078 23.3618C55.0078 24.7512 54.4867 25.8677 53.4447 26.736C52.4027 27.6044 51.0381 28.0262 49.351 28.0262C46.8947 28.0262 44.6866 27.1082 42.7266 25.297L44.7858 22.7664C46.4481 24.2302 47.9864 24.9497 49.4006 24.9497C50.0457 24.9497 50.5419 24.8008 50.8892 24.5279C51.2614 24.255 51.4351 23.8828 51.4351 23.4114C51.4351 22.94 51.2366 22.5679 50.8644 22.295C50.4923 22.0221 49.7231 21.7491 48.5818 21.4762C46.7955 21.0544 45.4557 20.4838 44.637 19.8139C43.7934 19.1192 43.3965 18.0524 43.3965 16.5886C43.3965 15.1247 43.9175 13.9835 44.9843 13.1895C46.0512 12.3956 47.3413 11.9986 48.9292 11.9986C49.9712 11.9986 50.9885 12.1723 52.0305 12.5196C53.0725 12.867 53.9657 13.3632 54.7348 14.0331L52.9981 16.5637C51.6584 15.5465 50.269 15.0503 48.83 15.0503C48.2593 15.0503 47.8127 15.1744 47.4654 15.4473C47.1428 15.7202 46.9692 16.0923 46.9692 16.5389C46.9692 16.9855 47.1677 17.3577 47.5646 17.6058C47.9616 17.8787 48.9044 18.1764 50.3682 18.5486C51.832 18.9456 52.9733 19.4914 53.792 20.2109ZM61.4585 24.8008H69.373V27.8525H58.0098V12.4204H69.1249V15.4969H61.4337V18.6726H68.331V21.6003H61.4337V24.8008H61.4585ZM86.2442 27.5548C86.0705 27.6788 85.8224 27.8029 85.5495 27.9021C85.2517 28.0014 84.954 28.051 84.6315 28.051C84.3337 28.051 84.036 27.9766 83.7383 27.8277C83.4406 27.6788 83.2421 27.4804 83.118 27.2571C84.5074 26.612 85.5991 25.6692 86.4178 24.379C87.2366 23.0889 87.6335 21.6499 87.6335 20.062C87.6335 17.8043 86.8644 15.8939 85.3014 14.3804C83.7383 12.867 81.8279 12.0979 79.5453 12.0979C77.2628 12.0979 75.3524 12.867 73.7893 14.3804C72.2262 15.8939 71.4571 17.8043 71.4571 20.062C71.4571 22.3198 72.2262 24.2302 73.7893 25.7436C75.3524 27.2571 77.2628 28.0262 79.5453 28.0262C79.9919 28.9194 80.6618 29.5892 81.5054 30.0855C82.3489 30.5817 83.2173 30.805 84.1105 30.805C85.9961 30.805 87.5839 30.1351 88.8493 28.7953L87.0629 26.6616C86.8892 26.9345 86.6163 27.2323 86.2442 27.5548ZM79.5453 24.9993C78.2552 24.9993 77.1635 24.5279 76.2952 23.5603C75.402 22.5927 74.9802 21.4266 74.9802 20.062C74.9802 18.6975 75.4268 17.5065 76.2952 16.5389C77.1883 15.5713 78.2552 15.0751 79.5453 15.0751C80.8355 15.0751 81.9271 15.5713 82.7955 16.5389C83.6887 17.5065 84.1105 18.6726 84.1105 20.062C84.1105 21.4514 83.6639 22.6175 82.7955 23.5603C81.9023 24.5279 80.8355 24.9993 79.5453 24.9993ZM100.138 12.4204H103.587V21.0544C103.587 23.2874 102.966 24.9993 101.726 26.215C100.485 27.4059 98.8975 28.0014 96.9871 28.0014C95.0519 28.0014 93.464 27.4059 92.2235 26.1902C90.983 24.9745 90.3627 23.2626 90.3627 21.0544V12.4204H93.8114V20.9304C93.8114 22.1709 94.1091 23.1385 94.6797 23.858C95.2504 24.5775 96.0195 24.9249 96.9871 24.9249C97.9547 24.9249 98.7238 24.5775 99.2945 23.858C99.8651 23.1385 100.138 22.1709 100.138 20.9304V12.4204ZM114.379 12.0731C112.097 12.0731 110.186 12.8422 108.623 14.3556C107.06 15.8691 106.291 17.7795 106.291 20.0372C106.291 22.295 107.06 24.2054 108.623 25.7188C110.186 27.2323 112.097 28.0014 114.379 28.0014C116.662 28.0014 118.572 27.2323 120.135 25.7188C121.698 24.2054 122.467 22.295 122.467 20.0372C122.467 17.7795 121.698 15.8691 120.135 14.3556C118.597 12.8422 116.662 12.0731 114.379 12.0731ZM117.654 23.5603C116.761 24.5279 115.694 24.9993 114.404 24.9993C113.114 24.9993 112.022 24.5279 111.154 23.5603C110.261 22.5927 109.839 21.4266 109.839 20.062C109.839 18.6975 110.286 17.5065 111.154 16.5389C112.047 15.5713 113.114 15.0751 114.404 15.0751C115.694 15.0751 116.786 15.5713 117.654 16.5389C118.547 17.5065 118.969 18.6726 118.969 20.062C118.969 21.4514 118.547 22.5927 117.654 23.5603ZM125.47 12.4204H128.918V27.8525H125.47V12.4204ZM140.852 12.4204H137.527L130.853 27.8525H134.525L135.964 24.5279H142.44L143.854 27.8525H147.526L140.852 12.4204ZM137.255 21.501L139.19 17.0103L141.1 21.501H137.255ZM149.263 13.8842C149.263 14.703 148.643 15.3232 147.824 15.3232C147.005 15.3232 146.385 14.6782 146.385 13.8842C146.385 13.0903 147.005 12.4452 147.824 12.4452C148.643 12.4452 149.263 13.0655 149.263 13.8842ZM149.064 13.8842C149.064 13.1647 148.543 12.6437 147.824 12.6437C147.104 12.6437 146.583 13.1895 146.583 13.909C146.583 14.6037 147.104 15.1744 147.824 15.1744C148.518 15.1496 149.064 14.5789 149.064 13.8842ZM148.221 14.1323L148.593 14.703H148.32L147.973 14.1819H147.898H147.526V14.703H147.253V13.0655H147.898C148.295 13.0655 148.568 13.2888 148.568 13.6113C148.543 13.8842 148.419 14.0579 148.221 14.1323ZM148.295 13.6361C148.295 13.4376 148.146 13.3136 147.873 13.3136H147.526V13.9586H147.873C148.146 13.9586 148.295 13.8346 148.295 13.6361Z" fill="#777A7E"/>
</g>
<defs>
<clipPath id="clip0_3705_7415">
<rect width="148.863" height="40" fill="white" transform="translate(0.399902)"/>
</clipPath>
</defs>
</svg>
