<svg width="106" height="40" viewBox="0 0 106 40" fill="none" xmlns="http://www.w3.org/2000/svg">
<path d="M39.965 10.6577C40.3156 10.0245 40.3076 9.2534 39.9439 8.62763C39.5792 8.00371 38.9142 7.61695 38.192 7.60874C35.8856 7.73286 33.6042 7.07937 31.7127 5.75277C26.3307 2.19021 18.6784 1.96864 12.1378 5.77473C5.59724 9.58061 2.00354 16.3448 2.43128 22.7898V22.7852C2.64785 25.0866 2.0863 27.3942 0.836586 29.3383C0.48592 29.9721 0.493909 30.7436 0.857623 31.37C1.22134 31.9963 1.88724 32.3853 2.61106 32.3941C4.91741 32.27 7.19868 32.9238 9.08975 34.2509V34.2463C14.4717 37.8089 22.1241 38.0328 28.6646 34.2246C35.2052 30.4162 38.7989 23.6513 38.3689 17.2064V17.2108C38.1529 14.9092 38.7149 12.6016 39.965 10.6577Z" fill="#777A7E"/>
<path d="M69.56 20.8407V33.8327H78.9281V30.9154H73.1757V28.4633H78.0068V25.9703H73.1757V23.739H78.7443V20.8407H69.56Z" fill="#777A7E"/>
<path d="M101.069 28.315V33.8327H104.848V20.8407H101.069V25.4295L100.993 25.4544C98.5218 26.2714 96.6578 26.2812 96.5694 26.2812H96.4607V20.8407H92.6818V33.8319H96.4607V29.1812H96.5688C98.0518 29.1209 99.5183 28.8462 100.923 28.3656L101.069 28.315Z" fill="#777A7E"/>
<path d="M46.492 20.8708V33.8214H50.2611V29.3331H54.5252V26.5913H50.2611V24.0355H55.628V20.8708H46.492Z" fill="#777A7E"/>
<path d="M60.2774 6.18982V19.1822H69.6461V16.2647H63.8931V13.8125H68.7242V11.3196H63.8931V9.08895H69.7051V6.18982H60.2774Z" fill="#777A7E"/>
<path d="M81.419 6.18083V19.1728H90.357V15.9977H85.2002V6.18083H81.419Z" fill="#777A7E"/>
<path d="M71.1622 6.18083V19.1728H80.0994V15.9977H74.9434V6.18083H71.1622Z" fill="#777A7E"/>
<path fill-rule="evenodd" clip-rule="evenodd" d="M94.299 18.6684C95.4495 19.2532 96.5786 19.5147 97.9594 19.5147C99.3394 19.5147 100.469 19.253 101.617 18.6713C102.684 18.1401 103.576 17.3122 104.186 16.2867C104.794 15.2609 105.102 14.0531 105.102 12.6894C105.102 11.3257 104.791 10.1154 104.186 9.09125C103.576 8.06574 102.684 7.23782 101.617 6.70659C100.466 6.12183 99.3379 5.86093 97.9571 5.86093C96.5763 5.86093 95.4472 6.12183 94.2969 6.70659C93.2305 7.23558 92.3404 8.06296 91.7347 9.08833C91.1301 10.1147 90.8278 11.3226 90.8278 12.6862C90.8278 14.0499 91.1301 15.2602 91.7347 16.2844C92.3406 17.3109 93.2315 18.1392 94.299 18.6684ZM96.1864 9.48082C96.7262 9.1743 97.3389 9.01953 97.9594 9.03288V9.03309C98.578 9.02106 99.1883 9.17601 99.7264 9.48166C100.258 9.77898 100.692 10.2233 100.977 10.7614C101.273 11.3104 101.424 11.9588 101.424 12.6871C101.424 13.4154 101.273 14.0629 100.977 14.6121C100.694 15.1493 100.258 15.5912 99.7257 15.8827C98.618 16.4661 97.2941 16.4661 96.1864 15.8827C95.6551 15.5919 95.2226 15.1488 94.9446 14.6104C94.6544 14.0621 94.5077 13.4154 94.5077 12.6862C94.5077 11.9571 94.6544 11.3098 94.9446 10.7621C95.2241 10.2224 95.6559 9.77684 96.1864 9.48082Z" fill="#777A7E"/>
<path d="M54.8819 13.6551V19.1728H58.6631V6.18083H54.8842V10.7711L54.8087 10.7953C52.3372 11.613 50.4743 11.6228 50.3859 11.6228H50.277V6.18083H46.4981V19.1722H50.277V14.5213H50.3859C51.8677 14.4606 53.3329 14.1859 54.7362 13.7058L54.8819 13.6551Z" fill="#777A7E"/>
<path d="M85.3054 34.0702C85.4375 34.0777 85.5684 34.0777 85.6976 34.0777C86.7238 34.0777 87.6642 33.9241 88.4925 33.6193C89.4144 33.2797 90.1551 32.7783 90.6842 32.1272C91.2148 31.4753 91.5123 30.6645 91.5292 29.8239C91.5654 28.8249 91.3394 28.0374 90.8588 27.483C90.3897 26.9351 89.7808 26.525 89.0971 26.2963C88.2455 26.0262 87.376 25.8167 86.4949 25.6692C85.7988 25.533 85.2976 25.4211 84.9953 25.3456C84.7018 25.2723 84.4262 25.14 84.1852 24.9569C83.9463 24.7773 83.8146 24.4888 83.8353 24.1905C83.8413 23.9512 83.9343 23.7223 84.0968 23.5467C84.2751 23.3609 84.5006 23.2271 84.7491 23.1597C85.0028 23.0867 85.2658 23.0513 85.5297 23.0544H85.665C86.2507 23.0758 86.7368 23.2377 87.1146 23.5348C87.4487 23.7939 87.6762 24.1666 87.7541 24.5824L90.4672 23.1452C90.3177 22.8141 90.1218 22.5059 89.8854 22.2301C89.3938 21.6679 88.78 21.226 88.0911 20.9382C87.3048 20.6102 86.4644 20.4323 85.6129 20.4135C85.5034 20.4072 85.396 20.4072 85.2887 20.4072H85.2887C84.4487 20.3954 83.6139 20.5416 82.8278 20.8382C82.0215 21.1598 81.3768 21.6431 80.9135 22.2755C80.4502 22.9078 80.1992 23.6641 80.1682 24.5225C80.1327 25.5096 80.3557 26.2879 80.8303 26.8348C81.289 27.3743 81.8814 27.7836 82.5481 28.0215C83.22 28.2583 84.0945 28.4784 85.1482 28.6742C85.8337 28.8104 86.3415 28.9255 86.6596 29.0178C86.9633 29.1005 87.2492 29.2384 87.503 29.4247C87.7497 29.6075 87.8853 29.9042 87.8622 30.2105C87.8529 30.4735 87.7358 30.7211 87.5385 30.8951C87.3092 31.0956 87.0366 31.2402 86.742 31.3177C86.426 31.4049 86.0993 31.4467 85.7716 31.4418H85.5863C85.0973 31.4328 84.6145 31.3301 84.1641 31.1392C83.7813 30.9783 83.4451 30.7234 83.1868 30.398C82.9814 30.1335 82.8404 29.8249 82.7749 29.4965L79.813 31.0666C79.9643 31.3959 80.1584 31.7037 80.3904 31.982C80.9051 32.6059 81.5996 33.1036 82.4417 33.4651C83.351 33.8413 84.3218 34.0464 85.3054 34.0702Z" fill="#777A7E"/>
<path fill-rule="evenodd" clip-rule="evenodd" d="M65.7978 33.6762C66.4991 33.8982 67.2306 34.0095 67.9662 34.0059H68.0341V30.7239C67.6524 30.6991 67.2769 30.6151 66.9209 30.4752C66.7425 30.4003 66.5711 30.3099 66.4085 30.2051C66.2471 30.0971 66.0954 29.9754 65.955 29.8413C65.6577 29.55 65.4076 29.2143 65.2135 28.846L65.1161 28.6523L65.2355 28.6115C65.8192 28.411 66.3684 28.1212 66.8634 27.7522C67.2543 27.4518 67.5687 27.0631 67.7809 26.6178C67.9939 26.1526 68.1006 25.6456 68.0931 25.1339C68.106 24.3422 67.8776 23.5655 67.4385 22.9069C67.0041 22.2642 66.3842 21.7604 65.577 21.4056C64.7699 21.0508 63.8298 20.8708 62.7807 20.8708H56.8855V33.8599H60.6644V29.3224H61.393L61.421 29.3898C61.4638 29.4939 61.5085 29.5972 61.5548 29.6998C61.7146 30.0469 61.8969 30.3832 62.1004 30.7066C62.5223 31.3801 63.048 31.9826 63.6581 32.4916C63.9742 32.7525 64.3129 32.9846 64.6702 33.1852C65.0305 33.3825 65.4079 33.5469 65.7978 33.6762ZM62.3197 26.8114H60.6644V23.5112H62.3197C62.6556 23.5092 62.9881 23.5784 63.2954 23.7141C63.5876 23.8411 63.8431 24.0399 64.0382 24.292C64.2302 24.5443 64.3321 24.8538 64.3277 25.1709C64.33 25.4818 64.228 25.7846 64.0382 26.0308C63.8427 26.2825 63.5873 26.4811 63.2954 26.6086C62.9881 26.7444 62.6555 26.8135 62.3197 26.8114Z" fill="#777A7E"/>
</svg>
