<svg width="130" height="40" viewBox="0 0 130 40" fill="none" xmlns="http://www.w3.org/2000/svg">
<path d="M28.6714 17.083L28.6322 16.9785L24.6749 6.65587C24.5948 6.45318 24.4523 6.28124 24.268 6.16494C24.1305 6.0769 23.9742 6.02231 23.8118 6.00553C23.6494 5.98876 23.4853 6.01027 23.3327 6.06833C23.18 6.12641 23.0432 6.21942 22.933 6.33993C22.8228 6.46043 22.7424 6.60508 22.6981 6.76227L20.027 14.9401H9.20971L6.53853 6.76227C6.49397 6.60531 6.41336 6.46094 6.30311 6.34067C6.19287 6.22039 6.05605 6.12754 5.90355 6.06952C5.75107 6.01149 5.58713 5.9899 5.42481 6.00647C5.2625 6.02304 5.1063 6.0773 4.96868 6.16494C4.78437 6.28124 4.64185 6.45318 4.56175 6.65587L0.606311 16.9803L0.565244 17.083C-0.00422189 18.5713 -0.074378 20.2044 0.365352 21.736C0.805084 23.2677 1.73086 24.6148 3.00309 25.5744L3.01803 25.5856L3.05163 25.6117L9.07158 30.1234L13.8726 33.7522C14.0855 33.913 14.345 34 14.6118 34C14.8786 34 15.1381 33.913 15.351 33.7522L20.152 30.1234L26.2149 25.5856L26.2317 25.5725C27.5039 24.6133 28.4298 23.2666 28.8698 21.7353C29.3099 20.2041 29.2402 18.5712 28.6714 17.083Z" fill="#777A7E"/>
<path d="M52.363 16.5491H56.6152C55.9059 12.0281 51.9915 8.87907 46.8974 8.87907C40.87 8.87907 36.3471 13.3105 36.3471 20.7323C36.3471 28.0216 40.6666 32.5426 47.0206 32.5426C52.7233 32.5426 56.8056 28.8746 56.8056 22.9368V20.1705H47.4593V23.4315H52.7681C52.7009 26.7168 50.5076 28.7962 47.043 28.7962C43.1865 28.7962 40.5434 25.9067 40.5434 20.6875C40.5434 15.502 43.2313 12.6236 46.9534 12.6236C49.731 12.6236 51.6313 14.1076 52.363 16.5491Z" fill="#777A7E"/>
<path d="M63.6879 32.2271H59.6168V14.9606H63.6879V32.2271Z" fill="#777A7E"/>
<path d="M64.0202 10.0121C64.0202 11.2254 62.9637 12.2166 61.6701 12.2166H61.6626C60.3578 12.2166 59.3088 11.2385 59.3088 10.0121C59.3088 8.78573 60.3765 7.7964 61.6701 7.7964C62.9637 7.7964 64.0202 8.79879 64.0202 10.0121Z" fill="#777A7E"/>
<path d="M75.8791 14.9606H72.4706V10.8129H68.3994V14.9606H65.9485V18.1097H68.3994V27.7155C68.377 30.9653 70.7402 32.5688 73.7978 32.4736C74.6123 32.4574 75.42 32.3209 76.1946 32.0685L75.5076 28.884C75.1186 28.9849 74.7187 29.0382 74.3167 29.0426C73.2919 29.0426 72.4706 28.6824 72.4706 27.0397V18.1003H75.8791V14.9606Z" fill="#777A7E"/>
<path d="M93.3472 32.2271H79.03V9.19265H83.2038V28.729H93.3472V32.2271Z" fill="#777A7E"/>
<path fill-rule="evenodd" clip-rule="evenodd" d="M101.146 32.5762C103.856 32.5762 105.475 31.305 106.218 29.8546H106.352V32.2271H110.272V20.6651C110.272 16.0993 106.55 14.7273 103.253 14.7273C99.621 14.7273 96.8322 16.3457 95.9325 19.4947L99.7348 20.036C100.138 18.8545 101.286 17.8427 103.281 17.8427C105.172 17.8427 106.207 18.8097 106.207 20.5083V20.5755C106.207 21.677 105.117 21.7916 102.438 22.0732C102.33 22.0846 102.219 22.0963 102.105 22.1083C102.048 22.1143 101.99 22.1205 101.932 22.1267C98.5812 22.487 95.3762 23.4875 95.3762 27.3795C95.365 30.7768 97.8495 32.5762 101.146 32.5762ZM102.484 29.5896C100.786 29.5896 99.5706 28.813 99.5706 27.3179C99.5706 25.7536 100.931 25.1021 102.744 24.8427C102.796 24.8356 102.85 24.8283 102.906 24.8207L102.909 24.8202C104.02 24.67 105.977 24.4054 106.477 24.0008V26.0355C106.488 27.9525 104.935 29.584 102.484 29.584V29.5896Z" fill="#777A7E"/>
<path fill-rule="evenodd" clip-rule="evenodd" d="M117.274 32.2271H113.27V9.19265H117.337V17.8091H117.509C118.129 16.5603 119.4 14.7273 122.448 14.7273C126.441 14.7273 129.579 17.8539 129.579 23.6125C129.579 29.3021 126.531 32.5314 122.459 32.5314C119.49 32.5314 118.151 30.7656 117.509 29.5056H117.274V32.2271ZM121.323 18.0667C118.702 18.0667 117.263 20.2302 117.263 23.5901C117.263 26.9408 118.724 29.1901 121.323 29.1901C124.013 29.1901 125.429 26.8083 125.429 23.5901C125.429 20.372 124.033 18.0667 121.323 18.0667Z" fill="#777A7E"/>
</svg>
