<svg width="180" height="40" viewBox="0 0 180 40" fill="none" xmlns="http://www.w3.org/2000/svg">
<g clip-path="url(#clip0_3705_7419)">
<path d="M0.367628 22.2209L0.0800781 24.8088L0.367628 27.3968C0.367628 27.5406 0.511403 27.5406 0.511403 27.5406C0.655179 27.5406 0.655179 27.3968 0.655179 27.3968L1.0865 24.8088L0.655179 22.2209C0.655179 22.0771 0.511403 22.0771 0.511403 22.0771C0.511403 22.0771 0.367628 22.0771 0.367628 22.2209ZM2.09293 20.6394L1.6616 24.8088L2.09293 28.9783C2.09293 29.1221 2.2367 29.1221 2.2367 29.1221C2.38048 29.1221 2.38048 28.9783 2.38048 28.9783L2.95558 24.8088L2.38048 20.6394C2.38048 20.4956 2.2367 20.4956 2.2367 20.4956L2.09293 20.6394ZM7.55638 20.0643L7.26883 24.8088L7.55638 29.841C7.55638 29.9847 7.70016 30.1285 7.84393 30.1285C7.98771 30.1285 8.13148 29.9847 8.13148 29.841L8.70658 24.8088L8.27526 20.0643C8.27526 19.9205 8.13148 19.7767 7.98771 19.7767C7.70016 19.7767 7.55638 19.9205 7.55638 20.0643ZM3.96201 19.7767L3.53068 24.8088L3.96201 29.5534C3.96201 29.6972 4.10578 29.841 4.24956 29.841C4.24956 29.841 4.39333 29.6972 4.39333 29.5534L4.82466 24.8088L4.39333 19.7767C4.39333 19.6329 4.24956 19.4892 4.10578 19.4892C4.10578 19.6329 3.96201 19.6329 3.96201 19.7767ZM5.68731 19.6329L5.25598 24.8088L5.68731 29.6972C5.68731 29.841 5.83108 29.9847 5.97486 29.9847C6.11863 29.9847 6.26241 29.841 6.26241 29.6972L6.69373 24.8088L6.26241 19.6329C6.26241 19.4892 6.11863 19.3454 5.97486 19.3454C5.83108 19.3454 5.83108 19.4892 5.68731 19.6329ZM9.42546 17.045L8.99413 24.8088L9.42546 29.841C9.42546 29.9847 9.56923 30.1285 9.71301 30.1285C10.0006 30.1285 10.1443 29.9847 10.1443 29.841L10.5757 24.8088L10.1443 17.045C10.1443 16.9012 10.0006 16.7574 9.85679 16.7574C9.56924 16.7574 9.42546 16.9012 9.42546 17.045ZM11.2945 15.3197L11.007 24.8088L11.2945 29.841C11.2945 30.1285 11.4383 30.2723 11.7259 30.2723C11.8696 30.2723 12.1572 30.1285 12.1572 29.841L12.5885 24.8088L12.1572 15.3197C12.1572 15.0321 12.0134 14.8884 11.7259 14.8884C11.4383 14.8884 11.2945 15.0321 11.2945 15.3197ZM100.004 14.7446V20.208V23.0835C99.86 22.796 99.4287 22.0771 99.1411 21.6458L94.5403 14.7446H92.0961V27.8281H94.6841V22.0771V19.2016C94.8279 19.4892 95.2592 20.208 95.5468 20.6394L100.291 27.8281H102.592V14.7446H100.004ZM108.63 17.3325H110.068C112.8 17.3325 113.95 18.6265 113.95 21.3582C113.95 23.8024 112.656 25.3839 109.924 25.3839H108.63V17.3325ZM106.042 27.8281H109.924C113.231 27.8281 116.682 25.959 116.682 21.3582C116.682 16.6137 113.95 14.8884 110.212 14.8884H106.042V14.7446V27.8281ZM131.778 14.7446V27.8281H139.686V25.2402H134.51V14.7446H131.778ZM171.172 17.3325H172.61C175.342 17.3325 176.492 18.6265 176.492 21.3582C176.492 23.8024 175.198 25.3839 172.466 25.3839H171.172V17.3325ZM168.585 27.8281H172.466C175.342 27.8281 178.361 26.3904 179.08 22.9398V19.6329C178.505 16.1823 176.061 14.8884 172.754 14.8884H168.585V14.7446V27.8281ZM52.558 18.4827C52.558 21.0707 54.2833 21.7896 56.5837 22.3647C59.0279 22.9398 59.4592 23.2273 59.4592 24.09C59.4592 25.0964 58.7403 25.5277 57.1588 25.5277C55.8648 25.5277 54.7146 25.0964 53.852 24.09L51.9829 25.8153C52.9893 27.253 54.8584 28.2594 57.015 28.2594C60.6094 28.2594 62.1909 26.5341 62.1909 24.09C62.1909 21.2145 59.8905 20.4956 57.8777 20.0643C55.8648 19.6329 55.2897 19.3454 55.2897 18.4827C55.2897 17.9076 55.721 17.3325 57.1588 17.3325C58.309 17.3325 59.3154 17.7639 60.1781 18.6265L62.0471 16.7574C60.7532 15.4635 59.3154 14.7446 57.3026 14.7446C57.1588 14.7446 57.015 14.7446 56.8712 14.7446C54.4271 14.7446 52.558 16.1823 52.558 18.4827ZM66.9355 21.3582C66.9355 19.0578 67.7981 17.1888 69.9548 17.1888C72.1114 17.1888 72.9741 19.0578 72.9741 21.3582C72.9741 23.6586 72.1114 25.5277 69.9548 25.5277C67.7981 25.5277 66.9355 23.6586 66.9355 21.3582ZM64.2038 21.3582C64.2038 25.3839 66.3604 28.1157 69.811 28.1157C73.4054 28.1157 75.562 25.3839 75.562 21.3582C75.562 17.3325 73.4054 14.6008 69.811 14.6008C66.3604 14.6008 64.2038 17.3325 64.2038 21.3582ZM86.2014 14.6008V22.0771C86.2014 24.2337 85.1949 25.5277 83.4696 25.5277C81.7443 25.5277 80.7379 24.2337 80.7379 22.0771V14.7446H78.15V22.0771C78.15 25.8153 80.3066 27.9719 83.4696 27.9719C86.7765 27.9719 88.7893 25.8153 88.7893 21.9333V14.6008H86.2014ZM118.838 21.3582C118.838 25.5277 121.139 28.1157 124.589 28.1157C127.033 28.1157 128.471 26.9655 129.478 25.0964L127.321 23.8024C126.602 24.9526 125.883 25.5277 124.733 25.5277C122.72 25.5277 121.57 23.8024 121.57 21.3582C121.57 18.9141 122.72 17.1888 124.589 17.1888C125.74 17.1888 126.458 17.7639 127.034 18.6265L129.478 17.4763C128.615 15.751 127.177 14.6008 124.733 14.6008C121.282 14.6008 118.838 17.3325 118.838 21.3582ZM143.568 21.3582C143.568 19.0578 144.43 17.1888 146.587 17.1888C148.744 17.1888 149.606 19.0578 149.606 21.3582C149.606 23.6586 148.744 25.5277 146.587 25.5277C144.43 25.5277 143.568 23.6586 143.568 21.3582ZM140.836 21.3582C140.836 25.3839 142.993 28.1157 146.443 28.1157C150.038 28.1157 152.05 25.3839 152.05 21.3582C152.05 17.3325 149.894 14.6008 146.443 14.6008C142.993 14.6008 140.836 17.3325 140.836 21.3582ZM162.69 14.6008V22.0771C162.69 24.2337 161.683 25.5277 159.958 25.5277C158.233 25.5277 157.226 24.2337 157.226 22.0771V14.7446H154.638V22.0771C154.638 25.8153 156.795 27.9719 159.958 27.9719C163.265 27.9719 165.278 25.8153 165.278 21.9333V14.6008H162.69ZM18.9146 14.8884L18.6271 24.8088L18.9146 29.5534C18.9146 29.841 19.2022 30.1285 19.4897 30.1285C19.7773 30.1285 20.0648 29.841 20.0648 29.5534L20.3524 24.8088L20.0648 14.7446C20.0648 14.457 19.7773 14.1695 19.4897 14.1695C19.0584 14.3133 18.9146 14.457 18.9146 14.8884ZM13.1636 14.457L12.8761 24.8088L13.1636 29.6972C13.1636 29.9847 13.3074 30.1285 13.5949 30.1285C13.8825 30.1285 14.0263 29.9847 14.0263 29.6972L14.3138 24.8088L14.0263 14.457C14.0263 14.1695 13.8825 14.0257 13.5949 14.0257C13.3074 14.0257 13.1636 14.3133 13.1636 14.457ZM16.9018 14.457L16.6142 24.8088L16.9018 29.6972C16.9018 29.9847 17.1893 30.2723 17.4769 30.2723C17.7644 30.2723 18.052 29.9847 18.052 29.6972L18.3395 24.8088L18.052 14.457C18.052 14.1695 17.7644 13.8819 17.4769 13.8819C17.1893 13.8819 16.9018 14.1695 16.9018 14.457ZM15.0327 14.1695L14.7451 24.8088L15.0327 29.6972C15.0327 29.9847 15.1765 30.1285 15.464 30.1285C15.7516 30.1285 15.8953 29.9847 15.8953 29.6972L16.1829 24.8088L15.8953 14.1695C15.8953 13.8819 15.6078 13.7382 15.464 13.7382C15.3202 13.7382 15.0327 13.8819 15.0327 14.1695ZM20.7837 12.8755L20.4961 24.8088L20.7837 29.5534C20.7837 29.841 21.0712 30.1285 21.3588 30.1285C21.6463 30.1285 21.9339 29.841 21.9339 29.5534L22.2214 24.8088L21.9339 12.8755C21.9339 12.588 21.6463 12.3004 21.3588 12.3004C21.0712 12.3004 20.7837 12.588 20.7837 12.8755ZM22.7965 11.8691L22.509 24.8088L22.7965 29.5534C22.7965 29.841 23.0841 30.1285 23.3716 30.1285C23.6592 30.1285 23.9467 29.841 23.9467 29.5534L24.2343 24.8088L23.9467 11.8691C23.9467 11.5815 23.6592 11.294 23.3716 11.294H23.2279C22.9403 11.294 22.7965 11.5815 22.7965 11.8691ZM25.0969 10.5751C24.6656 10.7189 24.5218 10.8627 24.5218 11.294V29.5534C24.5218 29.841 24.8094 30.1285 25.0969 30.2723H41.056C44.219 30.2723 46.807 27.6843 46.807 24.5213C46.807 21.3582 44.219 18.7703 41.056 18.7703C40.3371 18.7703 39.4745 18.9141 38.8994 19.2016C38.468 14.0257 34.1548 10 28.8351 10C28.5475 10 28.4038 10 28.1162 10C27.1098 10 26.1034 10.2876 25.0969 10.5751Z" fill="#777A7E"/>
</g>
<defs>
<clipPath id="clip0_3705_7419">
<rect width="179" height="40" fill="white" transform="translate(0.0800781)"/>
</clipPath>
</defs>
</svg>
