<svg width="78" height="40" viewBox="0 0 78 40" fill="none" xmlns="http://www.w3.org/2000/svg">
<g clip-path="url(#clip0_3705_7417)">
<path d="M14.7599 24.0061C14.7599 25.2681 15.3739 25.8821 16.636 25.8821H17.1818C18.4439 25.8821 19.0579 25.2681 19.0579 24.0061V21.5842H21.9573V23.9037C21.9573 27.076 20.3541 28.7133 17.1477 28.7133H16.5337C13.3614 28.7133 11.7241 27.1101 11.7241 24.2789V12.1355C11.7241 8.588 13.3273 6.95068 16.5337 6.95068H17.1477C20.32 6.95068 21.9573 8.55389 21.9573 11.7603V19.0259H14.7599V24.0061ZM14.7599 16.1606H19.0238V11.658C19.0238 10.3959 18.4098 9.78187 17.1477 9.78187H16.6701C15.408 9.78187 14.794 10.3959 14.794 11.658V16.1606H14.7599Z" fill="#777A7E"/>
<path d="M23.9357 7.22308H26.9374V8.58751C27.6538 7.83707 28.8817 6.98431 30.5873 6.98431C33.1456 6.98431 34.4077 8.68984 34.4077 11.1799V24.4831C34.4077 27.0073 33.1456 28.6787 30.5873 28.6787C28.8476 28.6787 27.6538 27.8601 26.9374 27.1437V34H23.9357V7.22308ZM26.9374 24.756C27.7561 25.4723 28.7112 25.8475 29.7004 25.8475C30.7919 25.8475 31.4401 25.3359 31.4401 24.1079V11.5551C31.4401 10.3272 30.8261 9.8155 29.7004 9.8155C28.7112 9.8155 27.7561 10.2248 26.9374 10.907V24.756Z" fill="#777A7E"/>
<path d="M36.2153 21.0725C36.2153 18.446 37.0681 17.3886 39.3535 16.604L43.3786 15.2396V11.658C43.3786 10.3959 42.7646 9.71365 41.5025 9.71365H41.0249C39.7628 9.71365 39.1488 10.3959 39.1488 11.658V14.6597H36.2494V11.7603C36.2494 8.588 37.8526 6.95068 41.059 6.95068H41.6389C44.8112 6.95068 46.4485 8.55389 46.4485 11.7603V28.4404H43.4468V27.1101C42.6281 27.8947 41.5025 28.6792 39.7969 28.6792C37.4092 28.6792 36.2835 27.3148 36.2835 24.927V21.0725H36.2153ZM43.3786 24.8588V17.8661L40.6497 18.8894C39.5581 19.3329 39.1829 19.8787 39.1829 21.1066V24.3472C39.1829 25.3705 39.6946 25.8821 40.6497 25.8821C41.5707 25.848 42.3893 25.541 43.3786 24.8588Z" fill="#777A7E"/>
<path d="M58.4557 28.44H55.454V11.3505C55.454 10.293 54.9423 9.8155 54.0213 9.8155C53.2027 9.8155 52.3158 10.1225 51.2584 10.8729V28.44H48.2566V7.22308H51.2584V8.58751C52.1111 7.76885 53.2709 6.98431 54.9082 6.98431C56.4432 6.98431 57.4665 7.5983 58.0123 8.72395C59.0697 7.80296 60.3318 6.98431 62.0715 6.98431C64.391 6.98431 65.5849 8.41696 65.5849 10.7365V28.4741H62.5831V11.3505C62.5831 10.293 62.0715 9.8155 61.1505 9.8155C60.3318 9.8155 59.4449 10.1225 58.3875 10.8729V28.44H58.4557Z" fill="#777A7E"/>
<path d="M7.93761 9.16826V13.091L2.92333 17.8665L7.93761 22.5738V26.5647L0.262695 19.3333V16.468L7.93761 9.16826Z" fill="#777A7E"/>
<path d="M77.08 16.468V19.3333L69.4051 26.5647V22.5738L74.4193 17.8665L69.4051 13.0569V9.16826L77.08 16.468Z" fill="#777A7E"/>
</g>
<defs>
<clipPath id="clip0_3705_7417">
<rect width="76.8173" height="40" fill="white" transform="translate(0.262695)"/>
</clipPath>
</defs>
</svg>
