<svg width="24" height="24" viewBox="0 0 24 24" fill="none" xmlns="http://www.w3.org/2000/svg" aria-hidden="true"><path d="M17.6458 18.4063C17.6458 17.8022 17.1561 17.3125 16.5521 17.3125H15.0938C14.4897 17.3125 14 17.8022 14 18.4063C14 19.0103 14.4897 19.5 15.0938 19.5H16.0833" stroke="#B3B5B7" stroke-opacity="0.99" stroke-width="1.5"></path><path d="M14.0007 20.5933C14.0007 21.1973 14.4904 21.687 15.0945 21.687H16.5528C17.1569 21.687 17.6465 21.1973 17.6465 20.5933C17.6465 19.9892 17.1569 19.4995 16.5528 19.4995H15.459" stroke="#B3B5B7" stroke-opacity="0.99" stroke-width="1.5"></path><path d="M15.8223 16.875V16" stroke="#B3B5B7" stroke-opacity="0.99" stroke-width="1.5"></path><path d="M15.8223 23V21.25" stroke="#B3B5B7" stroke-opacity="0.99" stroke-width="1.5"></path><path d="M9.5632 18.6711C9.5632 20.6477 7.96085 22.25 5.98425 22.25H5.56231H1.76367V18.75C1.76367 15.4363 4.44996 12.75 7.76367 12.75H16.2374C19.5511 12.75 22.2374 15.4363 22.2374 18.75V23.0312" stroke="#B3B5B7" stroke-width="1.5"></path><path d="M12 10.3438C14.3645 10.3438 16.2812 8.42697 16.2812 6.0625C16.2812 3.69803 14.3645 1.78125 12 1.78125C9.63553 1.78125 7.71875 3.69803 7.71875 6.0625C7.71875 8.42697 9.63553 10.3438 12 10.3438Z" stroke="#B3B5B7" stroke-width="1.5"></path></svg>