<svg width="24" height="24" viewBox="0 0 24 24" fill="none" xmlns="http://www.w3.org/2000/svg" aria-hidden="true"><path d="M1.77344 6.14453C1.77344 3.93539 3.5643 2.14453 5.77344 2.14453H22.2266V18.6055C22.2266 20.8146 20.4357 22.6055 18.2266 22.6055H1.77344V6.14453Z" stroke="#B3B5B7" stroke-width="1.5"></path><path d="M10 12V22.625" stroke="#B3B5B7" stroke-opacity="0.99" stroke-width="1.5"></path><path d="M12 12.3125H1.6875" stroke="#B3B5B7" stroke-opacity="0.99" stroke-width="1.5"></path><path d="M18 12.3125H8" stroke="#B3B5B7" stroke-opacity="0.99" stroke-width="1.5"></path><path d="M22.8438 12.3125H20" stroke="#B3B5B7" stroke-opacity="0.99" stroke-width="1.5"></path><path d="M10.8818 8.9139L10 12L13.0861 11.1182C14.3934 10.7447 14.8185 9.10429 13.8571 8.1429C12.8958 7.18151 11.2553 7.6066 10.8818 8.9139Z" stroke="#B3B5B7" stroke-opacity="0.99" stroke-width="1.5"></path><path d="M9.11828 8.9139L10 12L6.9139 11.1182C5.6066 10.7447 5.18151 9.10429 6.1429 8.1429C7.10429 7.18151 8.74477 7.6066 9.11828 8.9139Z" stroke="#B3B5B7" stroke-opacity="0.99" stroke-width="1.5"></path><path d="M10 12L7.6924 15.129C6.96615 16.1137 5.53379 16.2213 4.66858 15.3561L4.3125 15" stroke="#B3B5B7" stroke-opacity="0.99" stroke-width="1.5"></path><path d="M10 12L12.3076 15.129C13.0339 16.1137 14.4662 16.2213 15.3314 15.3561L15.6875 15" stroke="#B3B5B7" stroke-opacity="0.99" stroke-width="1.5"></path></svg>