<?xml version="1.0" encoding="UTF-8"?>
<svg width="204" height="79" viewBox="0 0 204 79" fill="none" xmlns="http://www.w3.org/2000/svg">
<g filter="url(#6Q3yI2tmvl9qZv6BSoIxPb-filter0_dd_14807_26336)">
<rect x="4" y="16" width="177" height="57" rx="6.35957" fill="white"/>
</g>
<rect x="11" y="23" width="70.8638" height="20.2468" rx="10.1234" fill="#F0E9FF"/>
<circle cx="21.1236" cy="33.1235" r="8.56596" fill="#5A05FF"/>
<text fill="#00234B" xml:space="preserve" style="white-space: pre" font-family="Remote Sans" font-size="8" letter-spacing="0px"><tspan x="33.583" y="35.4881">Partners</tspan></text>
<path d="M24.0975 34.7568L24.4334 35.1339C24.5731 35.2907 24.5632 35.53 24.4111 35.6748L24.1285 35.9439C23.9691 36.0956 23.7158 36.0853 23.5694 35.9211L21.7461 33.8767L23.2279 35.5404C23.3663 35.6958 23.358 35.9326 23.2091 36.078L23.0332 36.2497C22.8745 36.4046 22.6187 36.3958 22.4709 36.2305L21.052 34.6426L22.2031 35.9349C22.3445 36.0938 22.3323 36.3368 22.1757 36.4807L21.9632 36.6759C21.8028 36.8232 21.5529 36.8103 21.4084 36.6474L20.316 35.4151L20.968 36.1471C21.1104 36.307 21.0969 36.552 20.9378 36.6954L20.4906 37.0982C20.4634 37.1227 20.4216 37.121 20.3965 37.0943L18.1558 34.7147C17.7831 34.3189 17.5756 33.7957 17.5756 33.252V33.252H17.1328V30.4708H19.3126C20.0309 30.4708 20.7149 30.7776 21.1926 31.3139V31.3139M24.0975 34.7568L21.8298 32.2107L20.882 33.2749C20.7271 33.4487 20.4553 33.4487 20.3005 33.2749L20.1039 33.0542C19.9724 32.9065 19.9724 32.6838 20.1039 32.5362L21.1926 31.3139M24.0975 34.7568L24.1209 34.7305C24.4836 34.3234 24.6839 33.7972 24.6839 33.252V33.252H25.1147V30.4708H23.0725C22.3543 30.4708 21.6703 30.7776 21.1926 31.3139V31.3139" stroke="white" stroke-width="0.584043" stroke-linecap="square"/>
<path d="M21.123 30.0085V28.8405" stroke="white" stroke-width="0.584043"/>
<path d="M22.292 30.0085V28.8405" stroke="white" stroke-width="0.584043"/>
<path d="M19.9551 30.0085V28.8405" stroke="white" stroke-width="0.584043"/>
<g clip-path="url(#6Q3yI2tmvl9qZv6BSoIxPb-clip0_14807_26336)">
<path d="M75.1321 33.2129H69.7939" stroke="black" stroke-width="0.584043"/>
<path d="M72.4609 30.5419C73.0606 31.5854 75.132 33.2129 75.132 33.2129C75.132 33.2129 73.0606 34.8404 72.4609 35.8839" stroke="black" stroke-width="0.584043"/>
</g>
<rect x="11" y="46" width="113" height="20" rx="10" fill="#CCDFFF"/>
<circle cx="21.1236" cy="56.1233" r="8.56596" fill="#0564FF"/>
<path d="M18.7815 55.4421H17.9115C17.4815 55.4421 17.1328 55.0934 17.1328 54.6633V52.9234C17.1328 52.4933 17.4815 52.1447 17.9115 52.1447H19.6515C20.0816 52.1447 20.4302 52.4933 20.4302 52.9234V53.7934" stroke="white" stroke-width="0.584043"/>
<path d="M23.4656 55.4421H24.3355C24.7656 55.4421 25.1143 55.0934 25.1143 54.6633V52.9234C25.1143 52.4933 24.7656 52.1447 24.3355 52.1447H22.5956C22.1655 52.1447 21.8168 52.4933 21.8168 52.9234V53.7934" stroke="white" stroke-width="0.584043"/>
<path d="M23.4656 56.817L24.3355 56.817C24.7656 56.817 25.1143 57.1656 25.1143 57.5957L25.1143 59.3357C25.1143 59.7657 24.7656 60.1144 24.3355 60.1144L22.5956 60.1144C22.1655 60.1144 21.8168 59.7657 21.8168 59.3357L21.8168 58.4657" stroke="white" stroke-width="0.584043"/>
<path d="M18.7815 56.817L17.9115 56.817C17.4815 56.817 17.1328 57.1656 17.1328 57.5957L17.1328 59.3357C17.1328 59.7657 17.4815 60.1144 17.9115 60.1144L19.6515 60.1144C20.0816 60.1144 20.4302 59.7657 20.4302 59.3357L20.4302 58.4657" stroke="white" stroke-width="0.584043"/>
<path d="M20.1653 56.2199C19.9006 55.9626 19.9006 55.5455 20.1653 55.2882C20.4299 55.0309 20.8589 55.0309 21.1235 55.2882C21.3881 55.0309 21.8171 55.0309 22.0817 55.2882C22.3463 55.5455 22.3463 55.9626 22.0817 56.2199L21.1235 57.1516L20.1653 56.2199Z" stroke="white" stroke-width="0.584043"/>
<text fill="#00234B" xml:space="preserve" style="white-space: pre" font-family="Remote Sans" font-size="8" letter-spacing="0px"><tspan x="33.583" y="58.8406">Remote Partners</tspan></text>
<g clip-path="url(#6Q3yI2tmvl9qZv6BSoIxPb-clip1_14807_26336)">
<path d="M114.285 56.2129H108.947" stroke="black" stroke-width="0.584043"/>
<path d="M111.614 53.5419C112.214 54.5854 114.285 56.2129 114.285 56.2129C114.285 56.2129 112.214 57.8404 111.614 58.8839" stroke="black" stroke-width="0.584043"/>
</g>
<g filter="url(#6Q3yI2tmvl9qZv6BSoIxPb-filter1_dd_14807_26336)">
<circle cx="178.642" cy="21" r="14.9999" fill="#7038FF"/>
</g>
<g clip-path="url(#6Q3yI2tmvl9qZv6BSoIxPb-clip2_14807_26336)">
<path d="M179.175 24.8524L180.635 26.3122L182.657 24.2899" stroke="white" stroke-width="0.669639"/>
<ellipse cx="178.639" cy="17.8195" rx="2.29351" ry="2.29351" stroke="white" stroke-width="0.669639"/>
<path d="M177.334 24.5741V24.5741C177.334 25.633 176.475 26.4914 175.416 26.4914H175.19H173.155V24.0807C173.155 22.6013 174.355 21.4021 175.834 21.4021H181.445C182.924 21.4021 184.123 22.6013 184.123 24.0807V26.9099" stroke="white" stroke-width="0.669639"/>
</g>
<g filter="url(#6Q3yI2tmvl9qZv6BSoIxPb-filter2_dd_14807_26336)">
<circle cx="156.113" cy="20.9999" r="14.9999" fill="#3D00C2"/>
</g>
<path d="M153.971 20.5061L155.795 22.3309L158.323 19.803" stroke="white" stroke-width="0.669639"/>
<path d="M150.635 21C150.635 17.9743 153.088 15.5215 156.113 15.5215V15.5215C159.139 15.5215 161.592 17.9743 161.592 21V21C161.592 24.0256 159.139 26.4784 156.113 26.4784V26.4784C153.088 26.4784 150.635 24.0256 150.635 21V21Z" stroke="white" stroke-width="0.669639"/>
<g filter="url(#6Q3yI2tmvl9qZv6BSoIxPb-filter3_dd_14807_26336)">
<circle cx="133.588" cy="21" r="14.9999" fill="#0047BC"/>
</g>
<g clip-path="url(#6Q3yI2tmvl9qZv6BSoIxPb-clip3_14807_26336)">
<g clip-path="url(#6Q3yI2tmvl9qZv6BSoIxPb-clip4_14807_26336)">
<path d="M128.928 21.5728L133.592 26.2371L138.256 21.5728" stroke="white" stroke-width="0.803566"/>
<path d="M138.257 21.5729V21.5729C139.321 20.509 139.321 18.784 138.257 17.7201V17.7201C137.193 16.6561 135.468 16.6561 134.404 17.7201V17.7201C133.34 18.784 133.34 20.509 134.404 21.5729V21.5729" stroke="white" stroke-width="0.803566"/>
<path d="M128.927 21.5728V21.5728C127.858 20.5032 127.858 18.7691 128.927 17.6995V17.6995C129.997 16.6299 131.731 16.6299 132.801 17.6995V17.6995" stroke="white" stroke-width="0.803566"/>
</g>
</g>
<g filter="url(#6Q3yI2tmvl9qZv6BSoIxPb-filter4_dd_14807_26336)">
<circle cx="111.061" cy="20.9999" r="14.9999" fill="#0564FF"/>
</g>
<rect x="111.848" y="21.7875" width="3.60793" height="3.60793" stroke="white" stroke-width="0.773128"/>
<rect x="106.178" y="21.7875" width="3.60793" height="3.60793" stroke="white" stroke-width="0.773128"/>
<rect x="111.848" y="16.1179" width="3.60793" height="3.60793" stroke="white" stroke-width="0.773128"/>
<rect x="106.178" y="16.1179" width="3.60793" height="3.60793" stroke="white" stroke-width="0.773128"/>
<defs>
<filter id="6Q3yI2tmvl9qZv6BSoIxPb-filter0_dd_14807_26336" x="0.539007" y="13.9234" width="183.922" height="64.6142" filterUnits="userSpaceOnUse" color-interpolation-filters="sRGB">
<feFlood flood-opacity="0" result="BackgroundImageFix"/>
<feColorMatrix in="SourceAlpha" type="matrix" values="0 0 0 0 0 0 0 0 0 0 0 0 0 0 0 0 0 0 127 0" result="hardAlpha"/>
<feOffset dy="1.3844"/>
<feGaussianBlur stdDeviation="1.7305"/>
<feComposite in2="hardAlpha" operator="out"/>
<feColorMatrix type="matrix" values="0 0 0 0 0 0 0 0 0 0.137255 0 0 0 0 0.294118 0 0 0 0.04 0"/>
<feBlend mode="normal" in2="BackgroundImageFix" result="effect1_dropShadow_14807_26336"/>
<feColorMatrix in="SourceAlpha" type="matrix" values="0 0 0 0 0 0 0 0 0 0 0 0 0 0 0 0 0 0 127 0" result="hardAlpha"/>
<feOffset dy="2.76879"/>
<feGaussianBlur stdDeviation="1.3844"/>
<feComposite in2="hardAlpha" operator="out"/>
<feColorMatrix type="matrix" values="0 0 0 0 0 0 0 0 0 0 0 0 0 0 0 0 0 0 0.08 0"/>
<feBlend mode="normal" in2="effect1_dropShadow_14807_26336" result="effect2_dropShadow_14807_26336"/>
<feBlend mode="normal" in="SourceGraphic" in2="effect2_dropShadow_14807_26336" result="shape"/>
</filter>
<filter id="6Q3yI2tmvl9qZv6BSoIxPb-filter1_dd_14807_26336" x="154.119" y="0.285874" width="49.0475" height="50.952" filterUnits="userSpaceOnUse" color-interpolation-filters="sRGB">
<feFlood flood-opacity="0" result="BackgroundImageFix"/>
<feColorMatrix in="SourceAlpha" type="matrix" values="0 0 0 0 0 0 0 0 0 0 0 0 0 0 0 0 0 0 127 0" result="hardAlpha"/>
<feOffset dy="3.8095"/>
<feGaussianBlur stdDeviation="4.76187"/>
<feComposite in2="hardAlpha" operator="out"/>
<feColorMatrix type="matrix" values="0 0 0 0 0 0 0 0 0 0.137255 0 0 0 0 0.294118 0 0 0 0.04 0"/>
<feBlend mode="normal" in2="BackgroundImageFix" result="effect1_dropShadow_14807_26336"/>
<feColorMatrix in="SourceAlpha" type="matrix" values="0 0 0 0 0 0 0 0 0 0 0 0 0 0 0 0 0 0 127 0" result="hardAlpha"/>
<feOffset dy="7.619"/>
<feGaussianBlur stdDeviation="3.8095"/>
<feComposite in2="hardAlpha" operator="out"/>
<feColorMatrix type="matrix" values="0 0 0 0 0 0 0 0 0 0 0 0 0 0 0 0 0 0 0.08 0"/>
<feBlend mode="normal" in2="effect1_dropShadow_14807_26336" result="effect2_dropShadow_14807_26336"/>
<feBlend mode="normal" in="SourceGraphic" in2="effect2_dropShadow_14807_26336" result="shape"/>
</filter>
<filter id="6Q3yI2tmvl9qZv6BSoIxPb-filter2_dd_14807_26336" x="131.59" y="0.285752" width="49.0475" height="50.952" filterUnits="userSpaceOnUse" color-interpolation-filters="sRGB">
<feFlood flood-opacity="0" result="BackgroundImageFix"/>
<feColorMatrix in="SourceAlpha" type="matrix" values="0 0 0 0 0 0 0 0 0 0 0 0 0 0 0 0 0 0 127 0" result="hardAlpha"/>
<feOffset dy="3.8095"/>
<feGaussianBlur stdDeviation="4.76187"/>
<feComposite in2="hardAlpha" operator="out"/>
<feColorMatrix type="matrix" values="0 0 0 0 0 0 0 0 0 0.137255 0 0 0 0 0.294118 0 0 0 0.04 0"/>
<feBlend mode="normal" in2="BackgroundImageFix" result="effect1_dropShadow_14807_26336"/>
<feColorMatrix in="SourceAlpha" type="matrix" values="0 0 0 0 0 0 0 0 0 0 0 0 0 0 0 0 0 0 127 0" result="hardAlpha"/>
<feOffset dy="7.619"/>
<feGaussianBlur stdDeviation="3.8095"/>
<feComposite in2="hardAlpha" operator="out"/>
<feColorMatrix type="matrix" values="0 0 0 0 0 0 0 0 0 0 0 0 0 0 0 0 0 0 0.08 0"/>
<feBlend mode="normal" in2="effect1_dropShadow_14807_26336" result="effect2_dropShadow_14807_26336"/>
<feBlend mode="normal" in="SourceGraphic" in2="effect2_dropShadow_14807_26336" result="shape"/>
</filter>
<filter id="6Q3yI2tmvl9qZv6BSoIxPb-filter3_dd_14807_26336" x="109.064" y="0.285874" width="49.0475" height="50.952" filterUnits="userSpaceOnUse" color-interpolation-filters="sRGB">
<feFlood flood-opacity="0" result="BackgroundImageFix"/>
<feColorMatrix in="SourceAlpha" type="matrix" values="0 0 0 0 0 0 0 0 0 0 0 0 0 0 0 0 0 0 127 0" result="hardAlpha"/>
<feOffset dy="3.8095"/>
<feGaussianBlur stdDeviation="4.76187"/>
<feComposite in2="hardAlpha" operator="out"/>
<feColorMatrix type="matrix" values="0 0 0 0 0 0 0 0 0 0.137255 0 0 0 0 0.294118 0 0 0 0.04 0"/>
<feBlend mode="normal" in2="BackgroundImageFix" result="effect1_dropShadow_14807_26336"/>
<feColorMatrix in="SourceAlpha" type="matrix" values="0 0 0 0 0 0 0 0 0 0 0 0 0 0 0 0 0 0 127 0" result="hardAlpha"/>
<feOffset dy="7.619"/>
<feGaussianBlur stdDeviation="3.8095"/>
<feComposite in2="hardAlpha" operator="out"/>
<feColorMatrix type="matrix" values="0 0 0 0 0 0 0 0 0 0 0 0 0 0 0 0 0 0 0.08 0"/>
<feBlend mode="normal" in2="effect1_dropShadow_14807_26336" result="effect2_dropShadow_14807_26336"/>
<feBlend mode="normal" in="SourceGraphic" in2="effect2_dropShadow_14807_26336" result="shape"/>
</filter>
<filter id="6Q3yI2tmvl9qZv6BSoIxPb-filter4_dd_14807_26336" x="86.5378" y="0.285752" width="49.0475" height="50.952" filterUnits="userSpaceOnUse" color-interpolation-filters="sRGB">
<feFlood flood-opacity="0" result="BackgroundImageFix"/>
<feColorMatrix in="SourceAlpha" type="matrix" values="0 0 0 0 0 0 0 0 0 0 0 0 0 0 0 0 0 0 127 0" result="hardAlpha"/>
<feOffset dy="3.8095"/>
<feGaussianBlur stdDeviation="4.76187"/>
<feComposite in2="hardAlpha" operator="out"/>
<feColorMatrix type="matrix" values="0 0 0 0 0 0 0 0 0 0.137255 0 0 0 0 0.294118 0 0 0 0.04 0"/>
<feBlend mode="normal" in2="BackgroundImageFix" result="effect1_dropShadow_14807_26336"/>
<feColorMatrix in="SourceAlpha" type="matrix" values="0 0 0 0 0 0 0 0 0 0 0 0 0 0 0 0 0 0 127 0" result="hardAlpha"/>
<feOffset dy="7.619"/>
<feGaussianBlur stdDeviation="3.8095"/>
<feComposite in2="hardAlpha" operator="out"/>
<feColorMatrix type="matrix" values="0 0 0 0 0 0 0 0 0 0 0 0 0 0 0 0 0 0 0.08 0"/>
<feBlend mode="normal" in2="effect1_dropShadow_14807_26336" result="effect2_dropShadow_14807_26336"/>
<feBlend mode="normal" in="SourceGraphic" in2="effect2_dropShadow_14807_26336" result="shape"/>
</filter>
<clipPath id="6Q3yI2tmvl9qZv6BSoIxPb-clip0_14807_26336">
<rect width="5.81317" height="5.63017" fill="white" transform="translate(69.7939 30.3978)"/>
</clipPath>
<clipPath id="6Q3yI2tmvl9qZv6BSoIxPb-clip1_14807_26336">
<rect width="5.81317" height="5.63017" fill="white" transform="translate(108.947 53.3978)"/>
</clipPath>
<clipPath id="6Q3yI2tmvl9qZv6BSoIxPb-clip2_14807_26336">
<rect width="12.8571" height="12.8571" fill="white" transform="translate(172.211 14.5718)"/>
</clipPath>
<clipPath id="6Q3yI2tmvl9qZv6BSoIxPb-clip3_14807_26336">
<rect width="12.8571" height="12.8571" fill="white" transform="translate(127.159 14.5715)"/>
</clipPath>
<clipPath id="6Q3yI2tmvl9qZv6BSoIxPb-clip4_14807_26336">
<rect width="12.8571" height="12.8571" fill="white" transform="translate(127.159 14.5715)"/>
</clipPath>
</defs>
<style>@import url("https://remote-website.remote.com/fonts/remote-sans.css");</style></svg>
