<svg width="207" height="24" viewBox="0 0 207 24" fill="none" xmlns="http://www.w3.org/2000/svg">
<path d="M114.581 1.00781L117.704 7.17051L124.169 8.43103L119.634 13.5003L120.507 20.4421L114.581 17.4124L108.656 20.4421L109.529 13.5003L104.993 8.43103L111.459 7.17051L114.581 1.00781Z" fill="#777A7E"/>
<path d="M155.501 1.00781L158.808 7.17051L165.653 8.43103L160.851 13.5003L161.775 20.4421L155.501 17.4124L149.227 20.4421L150.151 13.5003L145.349 8.43103L152.195 7.17051L155.501 1.00781Z" fill="#777A7E"/>
<path d="M134.749 1.00781L137.872 7.17051L144.337 8.43103L139.802 13.5003L140.675 20.4421L134.749 17.4124L128.823 20.4421L129.696 13.5003L125.161 8.43103L131.626 7.17051L134.749 1.00781Z" fill="#777A7E"/>
<path d="M176.255 1.00781L179.378 7.17051L185.843 8.43103L181.308 13.5003L182.181 20.4421L176.255 17.4124L170.33 20.4421L171.202 13.5003L166.667 8.43103L173.132 7.17051L176.255 1.00781Z" fill="#777A7E"/>
<path d="M196.419 1.66801L199.275 7.30539L199.341 7.43549L199.484 7.46341L205.434 8.62344L201.249 13.3013L201.159 13.4027L201.176 13.5375L201.978 19.9195L196.555 17.1467L196.419 17.0772L196.283 17.1467L190.86 19.9195L191.662 13.5375L191.679 13.4027L191.588 13.3013L187.403 8.62344L193.353 7.46341L193.496 7.43549L193.562 7.30539L196.419 1.66801Z" stroke="#777A7E" stroke-width="0.596833"/>
<path fill-rule="evenodd" clip-rule="evenodd" d="M197.01 2.18357V17.7112L196.411 17.4045L190.485 20.4342L191.358 13.4925L186.823 8.42322L193.288 7.16269L196.411 1L197.01 2.18357Z" fill="#777A7E"/>
<g clip-path="url(#clip0_2862_7172)">
<path fill-rule="evenodd" clip-rule="evenodd" d="M23.53 8.50318H14.7315L12.023 0.307373L9.29853 8.50318L0.5 8.48754L7.61574 13.5589L4.89124 21.7625L12.007 16.6912L19.1227 21.7625L16.4143 13.5667L23.53 8.50318ZM25.109 8.29114H34.8371V10.0653H31.0067V20.0668H28.9073V10.0653H25.093L25.109 8.29114ZM34.4204 11.5412H36.2153V13.1898H36.2474C36.3166 12.9466 36.4307 12.7177 36.584 12.5146C36.7478 12.286 36.9479 12.0845 37.1769 11.918C37.4059 11.7296 37.6661 11.5809 37.9462 11.4784C38.2151 11.3673 38.5037 11.3086 38.7956 11.3057C38.936 11.3057 39.0513 11.3119 39.1376 11.3165C39.1892 11.3192 39.2304 11.3214 39.2604 11.3214C39.3447 11.3396 39.4305 11.3501 39.5168 11.3528V13.1584C39.3794 13.1286 39.2402 13.1076 39.1001 13.0956C38.9619 13.0773 38.8228 13.0668 38.6834 13.0642C38.3687 13.063 38.0574 13.1272 37.7699 13.2526C37.4831 13.3834 37.2268 13.5705 37.0166 13.8021C36.7926 14.0739 36.619 14.3822 36.5038 14.7128C36.369 15.1181 36.3041 15.5426 36.3115 15.9688V20.0197H34.3883L34.4204 11.5412ZM48.3314 20.0668H46.4402V18.8813H46.4082C46.1629 19.318 45.7961 19.6773 45.3504 19.9176C44.9197 20.1719 44.4269 20.3075 43.924 20.3101C42.7862 20.3101 41.9528 20.0432 41.44 19.478C40.9271 18.9127 40.6706 18.0806 40.6706 16.9658V11.549H42.5938V16.7775C42.5938 17.5311 42.7381 18.0649 43.0426 18.3632C43.3471 18.6615 43.7477 18.8343 44.2767 18.8343C44.6233 18.8448 44.9679 18.7804 45.2863 18.6458C45.5419 18.5374 45.7672 18.3705 45.9434 18.1591C46.1194 17.9422 46.2452 17.6904 46.312 17.4212C46.3916 17.1187 46.4293 16.8071 46.4242 16.4948V11.549H48.3474V20.0746L48.3314 20.0668ZM51.6007 17.3348C51.6648 17.8844 51.8732 18.2612 52.2418 18.4967C52.6456 18.7248 53.106 18.8389 53.572 18.8264C53.7758 18.8245 53.9793 18.8088 54.181 18.7793C54.4005 18.753 54.6158 18.7003 54.8221 18.6223C55.017 18.5542 55.1889 18.4347 55.3188 18.2769C55.4527 18.1132 55.516 17.9047 55.4951 17.6959C55.4925 17.5838 55.467 17.4732 55.4203 17.3708C55.3734 17.2683 55.3063 17.176 55.2227 17.0993C55.0317 16.9398 54.8151 16.8125 54.5816 16.7225C54.2897 16.6196 53.9895 16.5408 53.6842 16.487C53.4116 16.4361 53.1392 16.375 52.8582 16.3119L52.8581 16.3119L52.6585 16.2672C52.3059 16.1886 51.9533 16.0944 51.6167 15.9845C51.2933 15.8838 50.9898 15.7298 50.7193 15.5292C50.4537 15.3422 50.2391 15.0942 50.0943 14.807C49.9234 14.4711 49.8407 14.0987 49.8538 13.7236C49.8355 13.3086 49.9596 12.8996 50.2065 12.5617C50.437 12.2473 50.7387 11.9895 51.0879 11.8081C51.4588 11.6117 51.8591 11.474 52.2738 11.3999C52.6809 11.3265 53.094 11.2897 53.5079 11.29C53.9394 11.2877 54.3698 11.3352 54.79 11.4313C55.1843 11.5143 55.5593 11.6688 55.8958 11.8866C56.2293 12.0929 56.5091 12.3724 56.7132 12.7031C56.9443 13.0696 57.0868 13.4832 57.1298 13.912H55.1266C55.0304 13.4567 54.822 13.1584 54.5015 13.0013C54.1455 12.8391 53.7563 12.7585 53.3636 12.7659C53.2355 12.7659 53.0592 12.7815 52.8829 12.7973C52.7029 12.8224 52.5257 12.8645 52.3539 12.9229C52.1982 12.9836 52.0566 13.0744 51.9373 13.1898C51.8784 13.2504 51.8325 13.3219 51.8022 13.4C51.772 13.4782 51.758 13.5615 51.761 13.6451C51.7565 13.7485 51.7758 13.8515 51.8173 13.9467C51.859 14.0418 51.9218 14.1265 52.0014 14.1946C52.1925 14.3499 52.4093 14.472 52.6424 14.5558C52.9344 14.6587 53.2345 14.7375 53.5399 14.7912C53.8736 14.8535 54.223 14.9313 54.5727 15.0091L54.5728 15.0091L54.5816 15.0111C54.9342 15.0896 55.2707 15.1838 55.6073 15.2937C55.9321 15.391 56.2363 15.5453 56.5048 15.749C56.7668 15.9377 56.9853 16.1784 57.1458 16.4555C57.315 16.7808 57.3978 17.1427 57.3862 17.5076C57.4017 17.9614 57.279 18.4096 57.0337 18.7949C56.7956 19.1434 56.4841 19.4379 56.1201 19.6585C55.7305 19.8808 55.3092 20.0448 54.8701 20.1452C54.4227 20.2431 53.9662 20.2956 53.5079 20.3022C52.994 20.3065 52.482 20.2431 51.9854 20.1139C51.5499 20.0014 51.1377 19.8154 50.7673 19.5644C50.4303 19.3209 50.1559 19.0037 49.966 18.638C49.7587 18.2278 49.6491 17.7768 49.6455 17.3191H51.5847V17.3348H51.6007ZM57.9312 11.5412H59.3896V8.96628H61.3127V11.5255H63.0436V12.9229H61.3127V17.4761C61.314 17.6492 61.3247 17.8222 61.3448 17.9943C61.3604 18.1201 61.3984 18.2423 61.457 18.3553C61.5244 18.4527 61.619 18.529 61.7295 18.5751C61.8941 18.6317 62.0679 18.6584 62.2423 18.6537C62.376 18.6563 62.5098 18.651 62.643 18.638C62.7776 18.6247 62.9114 18.6038 63.0436 18.5751V20.0353C62.8364 20.0666 62.6291 20.0823 62.4219 20.0979L62.4186 20.0981C62.2114 20.1247 62.0024 20.1351 61.7936 20.1296C61.3826 20.1419 60.9721 20.0943 60.5755 19.9882C60.3051 19.911 60.0577 19.771 59.8544 19.58C59.6781 19.3893 59.5565 19.1564 59.5018 18.9048C59.436 18.5948 59.3985 18.2795 59.3896 17.9628V12.9385H57.9312V11.5412ZM64.4059 11.5412H66.2008V12.7031H66.2329C66.4734 12.2335 66.8687 11.8573 67.3547 11.6354C67.8466 11.412 68.3833 11.2994 68.9253 11.3057C69.5443 11.2865 70.1592 11.4102 70.7203 11.6668C71.2164 11.8862 71.6509 12.2203 71.9863 12.6403C72.334 13.0672 72.5902 13.5585 72.7396 14.0847C73.0702 15.2012 73.0813 16.3853 72.7716 17.5076C72.6275 18.019 72.3943 18.5023 72.0825 18.9363C71.775 19.3494 71.3747 19.6878 70.9126 19.9254C70.398 20.1858 69.8248 20.3154 69.2458 20.3022C68.9663 20.2995 68.6875 20.2732 68.4125 20.2238C68.1368 20.1765 67.8679 20.0975 67.6112 19.9882C67.3565 19.881 67.1189 19.7382 66.9059 19.5644C66.6914 19.3968 66.5073 19.1952 66.3611 18.9677H66.329V23.2226H64.4059V11.5412ZM71.1049 15.8118C71.1079 15.4345 71.0539 15.0589 70.9446 14.6971C70.8524 14.352 70.6948 14.0272 70.4799 13.7393C70.2775 13.4671 70.0214 13.2375 69.7267 13.0642C69.4083 12.8914 69.0488 12.8046 68.685 12.813C67.8836 12.813 67.2746 13.0799 66.8579 13.6294C66.4412 14.1789 66.2489 14.9169 66.2489 15.8276C66.2416 16.2308 66.2956 16.633 66.4092 17.0208C66.5037 17.3631 66.6671 17.6834 66.8899 17.9628C67.0959 18.2252 67.3587 18.4397 67.6593 18.5909C67.9811 18.7532 68.3391 18.8341 68.701 18.8264C69.0874 18.8373 69.4697 18.745 69.8067 18.5595C70.1012 18.3858 70.3573 18.1562 70.56 17.8844C70.7596 17.5939 70.901 17.2688 70.9767 16.9266C71.0589 16.5604 71.1018 16.1868 71.1049 15.8118ZM74.4865 8.29114H76.4097V10.0653H74.4865V8.29114ZM74.4865 11.5412H76.4097V20.0668H74.4865V11.5412ZM78.1245 8.29114H80.0477V20.0668H78.1245V8.29114ZM85.9135 20.3022C85.2757 20.3151 84.6429 20.1975 84.0544 19.9569C83.5364 19.7412 83.0678 19.4262 82.676 19.0305C82.2952 18.6168 82.006 18.1303 81.8266 17.6017C81.6244 17.0204 81.5215 16.4103 81.5221 15.7961C81.5136 15.1864 81.6167 14.5802 81.8266 14.0062C82.0098 13.4793 82.2985 12.9935 82.676 12.5775C83.0606 12.1734 83.5311 11.8572 84.0544 11.6511C84.6446 11.4178 85.2765 11.3005 85.9135 11.3057C86.5512 11.2928 87.184 11.4105 87.7725 11.6511C88.2934 11.8611 88.7634 12.1768 89.1507 12.5775C89.5314 12.9912 89.8211 13.4776 89.9997 14.0062C90.2026 14.5822 90.3052 15.1871 90.3044 15.7961C90.3144 16.411 90.2109 17.0226 89.9997 17.6017C89.811 18.1258 89.5222 18.6105 89.1507 19.0305C88.7659 19.4345 88.2959 19.7508 87.7725 19.9569C87.1823 20.1915 86.5504 20.3089 85.9135 20.3022ZM85.9135 18.8107C86.2991 18.8176 86.6806 18.7256 87.0195 18.5438C87.3259 18.3737 87.5889 18.1374 87.7884 17.8529C87.9954 17.5626 88.1473 17.2382 88.2375 16.8952C88.4295 16.1799 88.4295 15.4281 88.2375 14.7128C88.1507 14.3687 87.9979 14.0438 87.7884 13.755C87.5838 13.4787 87.3217 13.2485 87.0195 13.0799C86.6798 12.9 86.2991 12.808 85.9135 12.813C85.5269 12.806 85.1463 12.8981 84.8074 13.0799C84.5052 13.2489 84.243 13.479 84.0385 13.755C83.8285 14.0438 83.6762 14.3687 83.5895 14.7128C83.3972 15.4281 83.3972 16.1799 83.5895 16.8952C83.6762 17.2392 83.8285 17.5642 84.0385 17.8529C84.2422 18.134 84.5043 18.3694 84.8074 18.5438C85.1438 18.7309 85.5269 18.8232 85.9135 18.8107ZM90.8812 11.5412H92.3396V8.96628H94.2629V11.5255H95.9943V12.9229H94.2629V17.4761C94.2646 17.6492 94.2746 17.8222 94.2955 17.9943C94.3105 18.1201 94.3489 18.2423 94.4074 18.3553C94.475 18.4527 94.5693 18.529 94.6795 18.5751C94.8448 18.6317 95.0184 18.6584 95.1929 18.6537C95.3265 18.6563 95.46 18.651 95.5936 18.638C95.728 18.6247 95.8616 18.6038 95.9943 18.5751V20.0353C95.7875 20.0665 95.5807 20.0821 95.3748 20.0977L95.369 20.0981C95.162 20.1247 94.9525 20.1351 94.7438 20.1296C94.3331 20.1419 93.9224 20.0943 93.5258 19.9882C93.2554 19.911 93.0083 19.771 92.8046 19.58C92.6284 19.3893 92.5066 19.1564 92.4523 18.9048C92.3863 18.5948 92.3488 18.2795 92.3396 17.9628V12.9385H90.8812V11.5412Z" fill="#777A7E"/>
</g>
<defs>
<clipPath id="clip0_2862_7172">
<rect width="96" height="24" fill="white" transform="translate(0.5)"/>
</clipPath>
</defs>
</svg>
